<?xml version="1.0" encoding="UTF-8"?>
<svg version="1.1" xmlns="http://www.w3.org/2000/svg" width="542" height="542">
<path d="M0 0 C4.61257908 -0.1079868 7.18813543 0.25215122 11.2109375 2.5703125 C12.19578125 3.12976563 13.180625 3.68921875 14.1953125 4.265625 C15.24460937 4.87921875 16.29390625 5.4928125 17.375 6.125 C18.4784375 6.75664062 19.581875 7.38828125 20.71875 8.0390625 C24.154715 10.01141599 27.57862232 12.00246839 31 14 C32.02641602 14.59780273 33.05283203 15.19560547 34.11035156 15.81152344 C38.06767074 18.11769867 42.0231161 20.42698995 45.97387695 22.74438477 C56.21786143 28.74394305 66.5841538 34.51843955 76.95361328 40.29736328 C81.81281943 43.01319144 86.65650322 45.75628265 91.5 48.5 C98.5029993 52.46620952 105.5170398 56.41163571 112.54443359 60.33447266 C116.70971546 62.6610665 120.8708654 64.99495467 125.03027344 67.33203125 C126.98560371 68.43025687 128.94195915 69.52665954 130.89941406 70.62109375 C133.5631225 72.11344036 136.21995081 73.61731503 138.875 75.125 C139.6597168 75.56215332 140.44443359 75.99930664 141.25292969 76.44970703 C141.97125977 76.86075684 142.68958984 77.27180664 143.4296875 77.6953125 C144.05085449 78.04609863 144.67202148 78.39688477 145.31201172 78.75830078 C147.57599778 80.4237091 148.60391222 81.49668704 150 84 C150.45191566 87.29577717 150.39121362 90.57419508 150.36076355 93.89605713 C150.36332682 94.91219581 150.3658901 95.9283345 150.36853105 96.97526526 C150.37348409 100.39024561 150.35695059 103.80478675 150.34057617 107.21972656 C150.33973023 109.66363515 150.3402044 112.1075445 150.34190369 114.55145264 C150.3425875 119.81819589 150.33406213 125.08480165 150.31719017 130.35150909 C150.29281208 137.96626576 150.28499613 145.58096852 150.2812262 153.19575998 C150.27465984 165.55013357 150.25469368 177.90444774 150.22631836 190.25878906 C150.19878256 202.26008812 150.17754664 214.26137104 150.16479492 226.26269531 C150.16400675 227.00241932 150.16321858 227.74214333 150.16240653 228.50428322 C150.15849142 232.21525025 150.1547003 235.9262174 150.15097082 239.63718462 C150.11986916 270.42483295 150.06680539 301.21240745 150 332 C153.19411038 330.24805921 156.38740665 328.49463954 159.58056641 326.7409668 C160.47824234 326.24862297 161.37591827 325.75627914 162.30079651 325.24901581 C169.05484034 321.53835598 175.73765444 317.72852808 182.375 313.8125 C184.40214251 312.6246565 186.42948527 311.43715469 188.45703125 310.25 C189.40658691 309.693125 190.35614258 309.13625 191.33447266 308.5625 C194.90497453 306.46951484 198.47835661 304.38204088 202.0625 302.3125 C203.56490234 301.44044922 203.56490234 301.44044922 205.09765625 300.55078125 C207.7140893 299.1527679 210.35688676 297.99634192 213.09204102 296.85522461 C216.82954075 295.17992562 220.36959999 293.13025013 223.9375 291.125 C224.69740234 290.70347656 225.45730469 290.28195312 226.24023438 289.84765625 C230.70283795 287.35530549 235.03266758 284.74427847 239.28173828 281.90136719 C241 281 241 281 243.9375 281.125 C246 282 246 282 247 283 C247.10392258 284.83310811 247.13689322 286.67026001 247.14285278 288.50630188 C247.14881973 289.70197281 247.15478668 290.89764374 247.16093445 292.12954712 C247.16230559 293.46697982 247.16350521 294.80441271 247.16455078 296.1418457 C247.16913713 297.54122522 247.17404269 298.94060372 247.179245 300.33998108 C247.21970653 313.15524582 247.19539911 325.97094542 247.15728951 338.78619099 C247.12981358 348.25387991 247.13144299 357.72059256 247.17214787 367.1882394 C247.19824261 373.8493123 247.18980073 380.50982546 247.15649974 387.17086285 C247.13760148 391.14557706 247.13370484 395.11894575 247.1673317 399.09359169 C247.19838573 402.84300269 247.18627723 406.58993115 247.14266396 410.33919334 C247.12991442 412.35270847 247.16119988 414.36635611 247.1943512 416.37963867 C247.01221099 426.42985861 243.50775485 431.73571219 237 439 C235.98360023 440.26082512 234.97208213 441.52562635 233.96875 442.796875 C233.1540625 443.77140625 232.339375 444.7459375 231.5 445.75 C230.6646875 446.75546875 229.829375 447.7609375 228.96875 448.796875 C228.3190625 449.52390625 227.669375 450.2509375 227 451 C226.67 451 226.34 451 226 451 C226 405.13 226 359.26 226 312 C220.39 315.3 214.78 318.6 209 322 C196.06218713 329.59537413 183.09561289 337.12974425 170.01318359 344.47387695 C168.29733376 345.43787833 166.59352234 346.42377249 164.90531921 347.43540955 C162 349 162 349 158.8915863 350.01397705 C154.99157542 351.53317819 152.80020551 352.85407795 150 356 C147.71245676 363.33472539 148.63661923 371.57167326 148.86328125 379.14453125 C148.88821724 381.43896855 148.90768554 383.73347124 148.92192078 386.02799988 C148.97331671 392.0573124 149.09588813 398.08310058 149.23431396 404.11096191 C149.36414902 410.25770391 149.43180453 416.40506829 149.50195312 422.55273438 C149.58169228 429.45203153 149.66728699 436.35057039 149.80549622 443.24897766 C149.82517456 444.29470444 149.84485291 445.34043121 149.86512756 446.41784668 C149.90282712 448.37611997 149.94460343 450.33432047 149.99111938 452.29240417 C150.01507027 453.58134079 150.01507027 453.58134079 150.039505 454.89631653 C150.06426643 456.01924968 150.06426643 456.01924968 150.08952808 457.16486835 C150 459 150 459 149 461 C142.03996553 461.02526838 135.0799428 461.04283222 128.11987305 461.05493164 C125.75007688 461.05997341 123.38028385 461.06680665 121.01049805 461.07543945 C117.61245961 461.0875119 114.21446215 461.09322971 110.81640625 461.09765625 C109.74975235 461.10281754 108.68309845 461.10797882 107.5841217 461.11329651 C106.60318039 461.11337204 105.62223907 461.11344757 104.61157227 461.11352539 C103.74331314 461.115746 102.87505402 461.11796661 101.98048401 461.12025452 C100 461 100 461 99 460 C98.87803292 456.97753584 98.82133833 453.97754315 98.80712891 450.95385742 C98.79895142 450.00428665 98.79077393 449.05471588 98.78234863 448.07637024 C98.75744158 444.91940961 98.74096535 441.76249408 98.7265625 438.60546875 C98.72123882 437.53018732 98.71591515 436.45490589 98.71043015 435.34704018 C98.68367586 429.65609066 98.664308 423.96516327 98.64990234 418.27416992 C98.63324618 412.38570764 98.5884664 406.49780414 98.5375309 400.60955334 C98.50392868 396.09116447 98.49233258 391.57290936 98.48667526 387.05440712 C98.47994365 384.88341309 98.4646724 382.71242844 98.44078445 380.5415554 C98.40928024 377.50534494 98.40907413 374.47065614 98.41650391 371.43432617 C98.3918959 370.08369583 98.3918959 370.08369583 98.36679077 368.70578003 C98.42809093 362.59940083 98.42809093 362.59940083 101.38546753 359.49986267 C102.24826324 359.00490799 103.11105896 358.50995331 104 358 C104.79728516 357.52739746 105.59457031 357.05479492 106.41601562 356.56787109 C107.23779297 356.14070801 108.05957031 355.71354492 108.90625 355.2734375 C109.81503906 354.7990625 110.72382813 354.3246875 111.66015625 353.8359375 C113.06587891 353.11277344 113.06587891 353.11277344 114.5 352.375 C115.43714844 351.88515625 116.37429688 351.3953125 117.33984375 350.890625 C121.50969522 348.72585104 125.62786835 346.72478015 130 345 C129.97021844 343.89810491 129.94043688 342.79620981 129.90975285 341.66092396 C129.12863916 312.24827271 128.859774 282.8581512 128.89860606 253.43602157 C128.90501326 247.72674298 128.9054567 242.01746339 128.90663147 236.30818176 C128.90969508 225.57863723 128.91783871 214.84910333 128.92798096 204.1195634 C128.93929997 191.86966126 128.94469162 179.61975852 128.94967639 167.36985242 C128.96002773 142.24656247 128.97752687 117.12328184 129 92 C126.78762961 90.73466476 124.57512653 89.46956249 122.36254883 88.20458984 C121.74341866 87.85045517 121.12428848 87.4963205 120.48639679 87.13145447 C115.81954072 84.46366634 111.14016469 81.81870078 106.45532227 79.18261719 C97.91526019 74.37661947 89.41564752 69.5149941 80.98535156 64.51904297 C75.86978258 61.49353532 70.7034919 58.57019203 65.51220703 55.67700195 C58.29094535 51.63530332 51.16201445 47.43527574 44.03881836 43.22363281 C36.12580536 38.57340746 28.12182492 34.33163996 20 30 C20.33 105.57 20.66 181.14 21 259 C27.93 262.96 34.86 266.92 42 271 C56.10294257 279.34424102 56.10294257 279.34424102 60 284 C60.61803246 287.34269238 60.61803246 287.34269238 60.60800171 291.23149109 C60.6129794 291.94897374 60.61795709 292.6664564 60.62308562 293.40568095 C60.63364458 295.80451815 60.60852741 298.20163183 60.58349609 300.6003418 C60.58372284 302.32195188 60.58613759 304.04356286 60.59057617 305.76516724 C60.5962824 310.43659176 60.57099234 315.10739219 60.53990126 319.77869773 C60.5123627 324.66378844 60.51236165 329.54888002 60.50918579 334.43403625 C60.49998318 342.63460088 60.47245124 350.83493217 60.43212891 359.03540039 C60.3752614 370.61151658 60.35297454 382.1875155 60.33684421 393.76374948 C60.32440017 401.77262904 60.30371711 409.78149071 60.2814641 417.79034829 C60.27609814 419.73499117 60.27096197 421.6796347 60.26605177 423.62427878 C60.25177066 429.16455817 60.23237463 434.70477018 60.20457458 440.24499893 C60.19683749 441.92605335 60.19078244 443.60711645 60.18649673 445.28818321 C60.18030245 447.57532673 60.1679611 449.86235313 60.15390015 452.14945984 C60.14832785 453.43163234 60.14275555 454.71380484 60.13701439 456.03483105 C60 459 60 459 59 461 C51.45501767 461.02312851 43.91003899 461.04091769 36.36502934 461.05181217 C32.86191115 461.05703989 29.35881715 461.0641355 25.85571289 461.07543945 C21.83219159 461.08834206 17.80869586 461.09322912 13.78515625 461.09765625 C12.52163834 461.10281754 11.25812042 461.10797882 9.95631409 461.11329651 C8.795186 461.11337204 7.63405792 461.11344757 6.43774414 461.11352539 C4.8955294 461.11685631 4.8955294 461.11685631 3.32215881 461.12025452 C1 461 1 461 0 460 C-0.08531267 457.54589292 -0.10496476 455.12060729 -0.08229065 452.66661072 C-0.07906152 451.88988134 -0.07583239 451.11315197 -0.07250541 450.31288534 C-0.06036787 447.69023134 -0.04100827 445.06767889 -0.02172852 442.44506836 C-0.01159233 440.57302577 -0.00189795 438.70098073 0.00738525 436.82893372 C0.03393243 431.7299486 0.06669824 426.63101976 0.10053515 421.5320785 C0.13481291 416.20960251 0.16343457 410.88709626 0.19264221 405.56459045 C0.24885903 395.47812986 0.31020273 385.39170714 0.37336355 375.3052879 C0.4450021 363.82545701 0.51096299 352.34559572 0.57643402 340.86572826 C0.71128062 317.24377941 0.85329942 293.62187799 1 270 C0.23619019 269.70399399 -0.52761963 269.40798798 -1.3145752 269.10301208 C-4.47879713 267.80333874 -7.28156726 266.16386604 -10.21875 264.41015625 C-10.79911011 264.06496445 -11.37947021 263.71977264 -11.97741699 263.36412048 C-13.82030009 262.26693098 -15.6601726 261.16480414 -17.5 260.0625 C-18.73548185 259.32584435 -19.97115721 258.58951312 -21.20703125 257.85351562 C-26.14362943 254.91169577 -31.07241366 251.95688315 -36 249 C-36.00423194 250.08651572 -36.00846388 251.17303144 -36.01282406 252.29247189 C-36.11586344 278.68871978 -36.2245917 305.08493952 -36.33933926 331.48113918 C-36.39469682 344.24596158 -36.44818291 357.01078676 -36.49731445 369.77563477 C-36.54012533 380.89709346 -36.58639538 392.01853135 -36.63687855 403.13995796 C-36.66350451 409.03260878 -36.68835812 414.92525541 -36.70907402 420.81793022 C-36.72860266 426.35737438 -36.7527349 431.89677888 -36.78049088 437.43618774 C-36.78988137 439.4756454 -36.7975494 441.51511177 -36.80341911 443.5545826 C-36.81164649 446.32622223 -36.82591335 449.0977647 -36.84178162 451.86936951 C-36.84275972 452.68744676 -36.84373783 453.505524 -36.84474558 454.34839147 C-36.88587879 459.88587879 -36.88587879 459.88587879 -38 461 C-39.65191396 461.09868509 -41.30803217 461.12798837 -42.96289062 461.12939453 C-44.54958557 461.13412277 -44.54958557 461.13412277 -46.16833496 461.13894653 C-47.31934692 461.1369223 -48.47035889 461.13489807 -49.65625 461.1328125 C-51.41515564 461.13424759 -51.41515564 461.13424759 -53.20959473 461.13571167 C-55.69458062 461.1363937 -58.17956829 461.13453784 -60.66455078 461.13037109 C-64.48343887 461.12502319 -68.30220935 461.13031536 -72.12109375 461.13671875 C-74.52864609 461.13605797 -76.93619837 461.13477682 -79.34375 461.1328125 C-80.49476196 461.13483673 -81.64577393 461.13686096 -82.83166504 461.13894653 C-83.88946167 461.13579437 -84.9472583 461.13264221 -86.03710938 461.12939453 C-87.44156311 461.12820114 -87.44156311 461.12820114 -88.87438965 461.12698364 C-91 461 -91 461 -92 460 C-92.09921561 458.5945398 -92.12922547 457.18412642 -92.13142776 455.77517033 C-92.13526891 454.85827964 -92.13911005 453.94138895 -92.1430676 452.9967137 C-92.14220112 451.97767138 -92.14133463 450.95862906 -92.14044189 449.90870667 C-92.14341302 448.8352891 -92.14638414 447.76187154 -92.1494453 446.65592617 C-92.15817456 443.02915465 -92.15964409 439.40241598 -92.16113281 435.77563477 C-92.16575795 433.18763152 -92.17078219 430.59962895 -92.17617798 428.0116272 C-92.18978032 420.96012585 -92.19578886 413.90863018 -92.20018864 406.85711789 C-92.20294763 402.45778803 -92.20718432 398.05846037 -92.21169281 393.659132 C-92.22388753 381.48897852 -92.23418672 369.3188268 -92.2375679 357.14866734 C-92.23789725 355.97950206 -92.23789725 355.97950206 -92.23823325 354.78671729 C-92.23856067 353.61468884 -92.23856067 353.61468884 -92.2388947 352.41898304 C-92.23933817 350.83555575 -92.23978474 349.25212846 -92.24023438 347.66870117 C-92.2404558 346.88325961 -92.24067723 346.09781805 -92.24090537 345.28857522 C-92.24485559 332.55413966 -92.2623155 319.81976125 -92.2855939 307.08534778 C-92.30927697 294.02462085 -92.32176835 280.96392263 -92.32293582 267.90317386 C-92.32385426 260.56455846 -92.32964877 253.22601752 -92.34775543 245.88742256 C-92.36471621 238.98873918 -92.36643191 232.09019968 -92.35761642 225.19150162 C-92.35684165 222.65255925 -92.36124612 220.11360951 -92.37107468 217.57468605 C-92.38366047 214.12237725 -92.3779906 210.67058107 -92.36749268 207.21827698 C-92.37957728 205.69305958 -92.37957728 205.69305958 -92.39190602 204.13702971 C-92.38531618 203.21753127 -92.37872633 202.29803284 -92.3719368 201.35067081 C-92.37253389 200.55304075 -92.37313097 199.75541069 -92.37374616 198.93361002 C-92.25040992 198.29551871 -92.12707369 197.65742741 -92 197 C-91.01 196.34 -90.02 195.68 -89 195 C-87.99839844 195.61488281 -86.99679688 196.22976562 -85.96484375 196.86328125 C-84.62254137 197.67992676 -83.28008521 198.49631955 -81.9375 199.3125 C-81.28072266 199.71662109 -80.62394531 200.12074219 -79.94726562 200.53710938 C-76.78845486 202.45106861 -73.68229213 204.20745613 -70.26953125 205.62890625 C-67.5218389 206.78116433 -65.22044858 207.98807675 -62.75 209.625 C-60.41119793 211.16860936 -58.69794844 212.10068385 -56 213 C-56 188.25 -56 163.5 -56 138 C-70.46501094 146.03611719 -84.84469678 154.15066178 -99.125 162.5 C-112.69384971 170.43229336 -126.34450385 178.21828712 -140 186 C-143.97978986 188.26974288 -147.95878966 190.5408655 -151.9375 192.8125 C-152.78916748 193.29799316 -153.64083496 193.78348633 -154.51831055 194.28369141 C-155.3050415 194.73276855 -156.09177246 195.1818457 -156.90234375 195.64453125 C-157.62019043 196.05396973 -158.33803711 196.4634082 -159.07763672 196.88525391 C-160.7163082 197.8354919 -162.33160912 198.82584523 -163.94140625 199.82421875 C-166 201 -166 201 -168 201 C-168 286.14 -168 371.28 -168 459 C-172.53302984 455.11454585 -176.39784802 451.67767181 -180.3125 447.3125 C-181.15425781 446.38050781 -181.99601562 445.44851563 -182.86328125 444.48828125 C-185.73418009 441.14502245 -187.24677276 439.17154522 -187.27288628 434.78453922 C-187.28281856 433.92063417 -187.29275085 433.05672911 -187.30298412 432.16664511 C-187.30377786 431.21704788 -187.30457161 430.26745066 -187.3053894 429.28907776 C-187.31400407 428.28069931 -187.32261873 427.27232087 -187.33149445 426.2333855 C-187.35796425 422.83860784 -187.37012449 419.44392906 -187.38232422 416.04907227 C-187.39816299 413.6216479 -187.41481955 411.19422875 -187.43223572 408.76681519 C-187.47212277 402.84830238 -187.50244129 396.92978779 -187.52765088 391.01119847 C-187.5481779 386.20150406 -187.5718277 381.39183527 -187.59769058 376.58216667 C-187.67061546 362.95181477 -187.73515311 349.32146003 -187.78904222 335.69101942 C-187.7919493 334.95597862 -187.79485639 334.22093781 -187.79785156 333.46362305 C-187.80076042 332.72768694 -187.80366927 331.99175084 -187.80666627 331.23351365 C-187.85433887 319.30231139 -187.92199054 307.37131664 -187.99868761 295.44026888 C-188.07717248 283.19539265 -188.14072302 270.95051781 -188.18866169 258.7054829 C-188.215894 251.82843448 -188.24934838 244.95154487 -188.29885483 238.07461739 C-188.34526914 231.60932491 -188.37100681 225.14415764 -188.38261604 218.67870712 C-188.39016398 216.30182997 -188.40461478 213.92496354 -188.42636299 211.5481739 C-188.45492001 208.31115662 -188.45890127 205.07502633 -188.45651245 201.83790588 C-188.47069053 200.89053938 -188.4848686 199.94317288 -188.49947631 198.9670983 C-188.45765512 192.62524425 -188.45765512 192.62524425 -186.17947578 189.51281643 C-183.14257496 187.40484464 -179.99773877 185.5683308 -176.75 183.8125 C-175.29943392 183.01180072 -173.8489143 182.21101725 -172.3984375 181.41015625 C-171.29387207 180.80518311 -171.29387207 180.80518311 -170.16699219 180.18798828 C-166.89299009 178.39311511 -163.63176719 176.57592795 -160.375 174.75 C-159.40747803 174.20811035 -159.40747803 174.20811035 -158.42041016 173.65527344 C-152.60336421 170.37802503 -146.86408133 166.97394943 -141.125 163.5625 C-132.16464811 158.23741585 -123.10808887 153.12138475 -113.97851562 148.09375 C-103.90154218 142.52306379 -94.00257484 136.65133287 -84.09912109 130.78027344 C-77.98645484 127.16036488 -71.84439514 123.60755981 -65.65234375 120.125 C-62.68149364 118.42591501 -59.7802014 116.62759859 -56.87890625 114.8125 C-55.53046631 113.97730835 -55.53046631 113.97730835 -54.15478516 113.12524414 C-52.37461679 112.01955645 -50.60179007 110.90193941 -48.83740234 109.77124023 C-48.02352051 109.26794189 -47.20963867 108.76464355 -46.37109375 108.24609375 C-45.64849365 107.78904053 -44.92589355 107.3319873 -44.18139648 106.86108398 C-42 106 -42 106 -37 107 C-37 146.27 -37 185.54 -37 226 C-35.35 226.66 -33.7 227.32 -32 228 C-30.00599348 229.0803865 -28.03064478 230.19558917 -26.0703125 231.3359375 C-24.94496094 231.98820313 -23.81960937 232.64046875 -22.66015625 233.3125 C-21.48171176 233.99989873 -20.30332676 234.68739947 -19.125 235.375 C-17.95460873 236.05500024 -16.78403731 236.73469051 -15.61328125 237.4140625 C-13.44194611 238.67467764 -11.27143842 239.93671994 -9.10205078 241.20068359 C-6.84082019 242.51228988 -4.57622943 243.81639944 -2.30612183 245.11245728 C-0.66959152 246.04679092 -0.66959152 246.04679092 1 247 C0.97021844 246.04586716 0.94043688 245.09173431 0.90975285 244.10868835 C0.06366828 216.45011845 -0.13785874 188.81503485 -0.10139394 161.14492035 C-0.09500677 155.45029328 -0.09454478 149.75566526 -0.09336853 144.06103516 C-0.09029937 133.34903211 -0.0821476 122.63703965 -0.07201904 111.9250412 C-0.0607181 99.69943834 -0.05531277 87.47383488 -0.05032361 75.24822807 C-0.03995957 50.16547958 -0.02244874 25.08274039 0 0 Z M-72 228 C-72 298.29 -72 368.58 -72 441 C-66.72 441 -61.44 441 -56 441 C-56 373.35 -56 305.7 -56 236 C-63.60717695 230.52079948 -63.60717695 230.52079948 -72 228 Z M20 282 C20 334.47 20 386.94 20 441 C26.6 441 33.2 441 40 441 C40.30116634 421.84176534 40.53304054 402.68420083 40.67355824 383.524086 C40.74054351 374.62721593 40.83182928 365.73184507 40.98071289 356.8359375 C41.11044769 349.08047654 41.194192 341.32610124 41.22315043 333.56958532 C41.24007606 329.46330166 41.27972 325.36012312 41.37449074 321.25483704 C41.46307152 317.3861669 41.48989443 313.52186302 41.47039986 309.65227509 C41.47396258 308.23634289 41.49965094 306.82025766 41.54967117 305.40520477 C41.69854053 300.97460951 41.58826385 297.16136721 40 293 C36.02099133 289.37711917 31.88092029 287.28174182 27 285 C26.07764462 284.43731667 25.15528925 283.87463333 24.20498371 283.29489899 C22.13874808 281.83120158 22.13874808 281.83120158 20 282 Z M117 374 C115.30937846 379.10406464 115.5940907 384.04586121 115.828125 389.33984375 C115.85053359 390.83192595 115.86760242 392.32409703 115.87957764 393.81629944 C115.92519824 397.72648986 116.0428507 401.63124937 116.17602539 405.53930664 C116.29924314 409.53392034 116.3536832 413.52942059 116.4140625 417.52539062 C116.54240666 425.35301268 116.75326594 433.17505081 117 441 C121.29 441 125.58 441 130 441 C130 416.58 130 392.16 130 367 C125.29529047 367 120.25235247 371.00099075 117 374 Z " fill="#D2AF50" transform="translate(246,2)"/>
<path d="M0 0 C2.0625 0.875 2.0625 0.875 3.0625 1.875 C3.16642258 3.70810811 3.19939322 5.54526001 3.20535278 7.38130188 C3.21131973 8.57697281 3.21728668 9.77264374 3.22343445 11.00454712 C3.22480559 12.34197982 3.22600521 13.67941271 3.22705078 15.0168457 C3.23163713 16.41622522 3.23654269 17.81560372 3.241745 19.21498108 C3.28220653 32.03024582 3.25789911 44.84594542 3.21978951 57.66119099 C3.19231358 67.12887991 3.19394299 76.59559256 3.23464787 86.0632394 C3.26074261 92.7243123 3.25230073 99.38482546 3.21899974 106.04586285 C3.20010148 110.02057706 3.19620484 113.99394575 3.2298317 117.96859169 C3.26088573 121.71800269 3.24877723 125.46493115 3.20516396 129.21419334 C3.19241442 131.22770847 3.22369988 133.24135611 3.2568512 135.25463867 C3.07471099 145.30485861 -0.42974515 150.61071219 -6.9375 157.875 C-7.95389977 159.13582512 -8.96541787 160.40062635 -9.96875 161.671875 C-10.7834375 162.64640625 -11.598125 163.6209375 -12.4375 164.625 C-13.2728125 165.63046875 -14.108125 166.6359375 -14.96875 167.671875 C-15.6184375 168.39890625 -16.268125 169.1259375 -16.9375 169.875 C-17.2675 169.875 -17.5975 169.875 -17.9375 169.875 C-17.9375 124.005 -17.9375 78.135 -17.9375 30.875 C-23.5475 34.175 -29.1575 37.475 -34.9375 40.875 C-47.87531287 48.47037413 -60.84188711 56.00474425 -73.92431641 63.34887695 C-75.64016624 64.31287833 -77.34397766 65.29877249 -79.03218079 66.31040955 C-81.9375 67.875 -81.9375 67.875 -85.0459137 68.88897705 C-88.94592458 70.40817819 -91.13729449 71.72907795 -93.9375 74.875 C-96.22504324 82.20972539 -95.30088077 90.44667326 -95.07421875 98.01953125 C-95.04928276 100.31396855 -95.02981446 102.60847124 -95.01557922 104.90299988 C-94.96418329 110.9323124 -94.84161187 116.95810058 -94.70318604 122.98596191 C-94.57335098 129.13270391 -94.50569547 135.28006829 -94.43554688 141.42773438 C-94.35580772 148.32703153 -94.27021301 155.22557039 -94.13200378 162.12397766 C-94.11232544 163.16970444 -94.09264709 164.21543121 -94.07237244 165.29284668 C-94.03467288 167.25111997 -93.99289657 169.20932047 -93.94638062 171.16740417 C-93.93041336 172.02669525 -93.91444611 172.88598633 -93.897995 173.77131653 C-93.88148738 174.51993863 -93.86497976 175.26856073 -93.84797192 176.03986835 C-93.9375 177.875 -93.9375 177.875 -94.9375 179.875 C-101.89753447 179.90026838 -108.8575572 179.91783222 -115.81762695 179.92993164 C-118.18742312 179.93497341 -120.55721615 179.94180665 -122.92700195 179.95043945 C-126.32504039 179.9625119 -129.72303785 179.96822971 -133.12109375 179.97265625 C-134.18774765 179.97781754 -135.25440155 179.98297882 -136.3533783 179.98829651 C-137.33431961 179.98837204 -138.31526093 179.98844757 -139.32592773 179.98852539 C-140.62831642 179.99185631 -140.62831642 179.99185631 -141.95701599 179.99525452 C-143.9375 179.875 -143.9375 179.875 -144.9375 178.875 C-145.05946708 175.85253584 -145.11616167 172.85254315 -145.13037109 169.82885742 C-145.13854858 168.87928665 -145.14672607 167.92971588 -145.15515137 166.95137024 C-145.18005842 163.79440961 -145.19653465 160.63749408 -145.2109375 157.48046875 C-145.21626118 156.40518732 -145.22158485 155.32990589 -145.22706985 154.22204018 C-145.25382414 148.53109066 -145.273192 142.84016327 -145.28759766 137.14916992 C-145.30425382 131.26070764 -145.3490336 125.37280414 -145.3999691 119.48455334 C-145.43357132 114.96616447 -145.44516742 110.44790936 -145.45082474 105.92940712 C-145.45755635 103.75841309 -145.4728276 101.58742844 -145.49671555 99.4165554 C-145.52821976 96.38034494 -145.52842587 93.34565614 -145.52099609 90.30932617 C-145.53740143 89.40890594 -145.55380676 88.50848572 -145.57070923 87.58078003 C-145.50941678 81.47516927 -145.50941678 81.47516927 -142.55599976 78.37585449 C-141.25984238 77.63293152 -141.25984238 77.63293152 -139.9375 76.875 C-139.11926758 76.39716064 -138.30103516 75.91932129 -137.45800781 75.42700195 C-136.61077148 74.99347412 -135.76353516 74.55994629 -134.890625 74.11328125 C-133.96378906 73.63439453 -133.03695313 73.15550781 -132.08203125 72.66210938 C-131.12683594 72.17548828 -130.17164063 71.68886719 -129.1875 71.1875 C-127.27524512 70.20597741 -125.36374381 69.22298479 -123.453125 68.23828125 C-122.18903809 67.59306519 -122.18903809 67.59306519 -120.89941406 66.93481445 C-118.99291366 66.02576768 -118.99291366 66.02576768 -117.9375 64.875 C-115.26691149 64.73384839 -112.61317762 64.83252893 -109.9375 64.875 C-109.9375 64.215 -109.9375 63.555 -109.9375 62.875 C-109.256875 62.648125 -108.57625 62.42125 -107.875 62.1875 C-104.70478657 60.77102166 -102.2303134 59.00208079 -99.48828125 56.8984375 C-97.9375 55.875 -97.9375 55.875 -95.9375 55.875 C-95.78539062 55.15183594 -95.63328125 54.42867188 -95.4765625 53.68359375 C-93.13967278 49.41906658 -89.55583458 48.09157771 -85.3125 45.9375 C-83.49312948 44.97710058 -81.67549514 44.01340683 -79.859375 43.046875 C-78.89708984 42.53705078 -77.93480469 42.02722656 -76.94335938 41.50195312 C-71.74433673 38.68792723 -66.65739236 35.68473184 -61.5625 32.6875 C-59.53522696 31.49987929 -57.50788515 30.31237596 -55.48046875 29.125 C-54.53091309 28.568125 -53.58135742 28.01125 -52.60302734 27.4375 C-49.03252547 25.34451484 -45.45914339 23.25704088 -41.875 21.1875 C-40.87339844 20.60613281 -39.87179687 20.02476562 -38.83984375 19.42578125 C-36.2234107 18.0277679 -33.58061324 16.87134192 -30.84545898 15.73022461 C-27.10795925 14.05492562 -23.56790001 12.00525013 -20 10 C-18.86014648 9.36771484 -18.86014648 9.36771484 -17.69726562 8.72265625 C-13.23466205 6.23030549 -8.90483242 3.61927847 -4.65576172 0.77636719 C-2.9375 -0.125 -2.9375 -0.125 0 0 Z M-126.9375 92.875 C-128.62812154 97.97906464 -128.3434093 102.92086121 -128.109375 108.21484375 C-128.08696641 109.70692595 -128.06989758 111.19909703 -128.05792236 112.69129944 C-128.01230176 116.60148986 -127.8946493 120.50624937 -127.76147461 124.41430664 C-127.63825686 128.40892034 -127.5838168 132.40442059 -127.5234375 136.40039062 C-127.39509334 144.22801268 -127.18423406 152.05005081 -126.9375 159.875 C-122.6475 159.875 -118.3575 159.875 -113.9375 159.875 C-113.9375 135.455 -113.9375 111.035 -113.9375 85.875 C-118.64220953 85.875 -123.68514753 89.87599075 -126.9375 92.875 Z " fill="#C7A349" transform="translate(489.9375,283.125)"/>
<path d="M0 0 C3.44986183 5.17479274 2.27237376 12.13984854 1.43994141 18.15625 C0.83105618 20.70802648 -0.1089827 21.88235177 -2.25 23.375 C-4.15234375 24.28515625 -4.15234375 24.28515625 -6 25 C-6.928125 25.598125 -7.85625 26.19625 -8.8125 26.8125 C-11 28 -11 28 -13 28 C-13.1378894 28.91894043 -13.1378894 28.91894043 -13.27856445 29.85644531 C-14.19140654 32.56871385 -15.04495272 32.98273981 -17.54296875 34.296875 C-18.27918457 34.69358398 -19.01540039 35.09029297 -19.77392578 35.49902344 C-20.57040527 35.9118457 -21.36688477 36.32466797 -22.1875 36.75 C-23.85583946 37.64514275 -25.52380531 38.54098218 -27.19140625 39.4375 C-28.01656738 39.87578125 -28.84172852 40.3140625 -29.69189453 40.765625 C-32.70042072 42.37458506 -35.66556544 44.05262344 -38.625 45.75 C-39.7490625 46.39453125 -40.873125 47.0390625 -42.03125 47.703125 C-47.07471199 50.61443448 -52.09780789 53.56072577 -57.125 56.5 C-70.69384971 64.43229336 -84.34450385 72.21828712 -98 80 C-101.97978986 82.26974288 -105.95878966 84.5408655 -109.9375 86.8125 C-110.78916748 87.29799316 -111.64083496 87.78348633 -112.51831055 88.28369141 C-113.3050415 88.73276855 -114.09177246 89.1818457 -114.90234375 89.64453125 C-115.97911377 90.25868896 -115.97911377 90.25868896 -117.07763672 90.88525391 C-118.7163082 91.8354919 -120.33160912 92.82584523 -121.94140625 93.82421875 C-124 95 -124 95 -126 95 C-126 180.14 -126 265.28 -126 353 C-130.53302984 349.11454585 -134.39784802 345.67767181 -138.3125 341.3125 C-139.15425781 340.38050781 -139.99601562 339.44851563 -140.86328125 338.48828125 C-143.73418009 335.14502245 -145.24677276 333.17154522 -145.27288628 328.78453922 C-145.28281856 327.92063417 -145.29275085 327.05672911 -145.30298412 326.16664511 C-145.30377786 325.21704788 -145.30457161 324.26745066 -145.3053894 323.28907776 C-145.31400407 322.28069931 -145.32261873 321.27232087 -145.33149445 320.2333855 C-145.35796425 316.83860784 -145.37012449 313.44392906 -145.38232422 310.04907227 C-145.39816299 307.6216479 -145.41481955 305.19422875 -145.43223572 302.76681519 C-145.47212277 296.84830238 -145.50244129 290.92978779 -145.52765088 285.01119847 C-145.5481779 280.20150406 -145.5718277 275.39183527 -145.59769058 270.58216667 C-145.67061546 256.95181477 -145.73515311 243.32146003 -145.78904222 229.69101942 C-145.7919493 228.95597862 -145.79485639 228.22093781 -145.79785156 227.46362305 C-145.80076042 226.72768694 -145.80366927 225.99175084 -145.80666627 225.23351365 C-145.85433887 213.30231139 -145.92199054 201.37131664 -145.99868761 189.44026888 C-146.07717248 177.19539265 -146.14072302 164.95051781 -146.18866169 152.7054829 C-146.215894 145.82843448 -146.24934838 138.95154487 -146.29885483 132.07461739 C-146.34526914 125.60932491 -146.37100681 119.14415764 -146.38261604 112.67870712 C-146.39016398 110.30182997 -146.40461478 107.92496354 -146.42636299 105.5481739 C-146.45492001 102.31115662 -146.45890127 99.07502633 -146.45651245 95.83790588 C-146.47069053 94.89053938 -146.4848686 93.94317288 -146.49947631 92.9670983 C-146.45765512 86.62524425 -146.45765512 86.62524425 -144.17947578 83.51281643 C-141.14257496 81.40484464 -137.99773877 79.5683308 -134.75 77.8125 C-133.29943392 77.01180072 -131.8489143 76.21101725 -130.3984375 75.41015625 C-129.66206055 75.00684082 -128.92568359 74.60352539 -128.16699219 74.18798828 C-124.89299009 72.39311511 -121.63176719 70.57592795 -118.375 68.75 C-117.72998535 68.38874023 -117.0849707 68.02748047 -116.42041016 67.65527344 C-110.60336421 64.37802503 -104.86408133 60.97394943 -99.125 57.5625 C-90.16464811 52.23741585 -81.10808887 47.12138475 -71.97851562 42.09375 C-61.90154218 36.52306379 -52.00257484 30.65133287 -42.09912109 24.78027344 C-37.04788862 21.78894381 -31.98349007 18.82989568 -26.875 15.9375 C-17.81406181 10.79928505 -8.91592087 5.38462271 0 0 Z " fill="#BF9E43" transform="translate(204,108)"/>
<path d="M0 0 C1.7418446 1.7418446 1.13516036 4.13639322 1.14285278 6.50630188 C1.14881973 7.70197281 1.15478668 8.89764374 1.16093445 10.12954712 C1.16230559 11.46697982 1.16350521 12.80441271 1.16455078 14.1418457 C1.16913713 15.54122522 1.17404269 16.94060372 1.179245 18.33998108 C1.21970653 31.15524582 1.19539911 43.97094542 1.15728951 56.78619099 C1.12981358 66.25387991 1.13144299 75.72059256 1.17214787 85.1882394 C1.19824261 91.8493123 1.18980073 98.50982546 1.15649974 105.17086285 C1.13760148 109.14557706 1.13370484 113.11894575 1.1673317 117.09359169 C1.19838573 120.84300269 1.18627723 124.58993115 1.14266396 128.33919334 C1.12991442 130.35270847 1.16119988 132.36635611 1.1943512 134.37963867 C1.01221099 144.42985861 -2.49224515 149.73571219 -9 157 C-10.01639977 158.26082512 -11.02791787 159.52562635 -12.03125 160.796875 C-12.8459375 161.77140625 -13.660625 162.7459375 -14.5 163.75 C-15.3353125 164.75546875 -16.170625 165.7609375 -17.03125 166.796875 C-17.6809375 167.52390625 -18.330625 168.2509375 -19 169 C-19.33 169 -19.66 169 -20 169 C-20 123.13 -20 77.26 -20 30 C-22.475 31.485 -22.475 31.485 -25 33 C-25.66 33 -26.32 33 -27 33 C-27.495 31.515 -27.495 31.515 -28 30 C-27.195625 29.773125 -26.39125 29.54625 -25.5625 29.3125 C-24.716875 28.879375 -23.87125 28.44625 -23 28 C-22.10613836 25.45224694 -22.10613836 25.45224694 -22 23 C-21.34 23 -20.68 23 -20 23 C-20 22.34 -20 21.68 -20 21 C-19.01 21 -18.02 21 -17 21 C-16.67 20.34 -16.34 19.68 -16 19 C-15.67 20.98 -15.34 22.96 -15 25 C-14.48050781 24.59007812 -13.96101563 24.18015625 -13.42578125 23.7578125 C-9.7576223 20.92363424 -6.48550294 18.40171967 -2 17 C-2.165 15.7625 -2.33 14.525 -2.5 13.25 C-2.87709444 10.42179168 -3 7.88435938 -3 5 C-4.98 5.66 -6.96 6.32 -9 7 C-9.33 6.34 -9.66 5.68 -10 5 C-11.423125 5.99 -11.423125 5.99 -12.875 7 C-16 9 -16 9 -18 9 C-16.6621001 4.98630031 -14.85163712 4.37584435 -11.25 2.25 C-10.20328125 1.61578125 -9.1565625 0.9815625 -8.078125 0.328125 C-4.72512614 -1.1186004 -3.39204068 -1.19575535 0 0 Z " fill="#E9C565" transform="translate(492,284)"/>
<path d="M0 0 C0.15362641 13.52531348 0.30180826 27.05067446 0.4429636 40.57612419 C0.50867442 46.85595856 0.57628841 53.13576061 0.64819336 59.41552734 C0.7174658 65.47141589 0.78181546 71.52733827 0.84269524 77.5833168 C0.86684344 79.89828529 0.89279087 82.21323571 0.92053413 84.52816391 C0.95897342 87.7607719 0.99111914 90.99338397 1.02172852 94.22607422 C1.03467453 95.19136047 1.04762054 96.15664673 1.06095886 97.15118408 C1.06799835 98.02900543 1.07503784 98.90682678 1.08229065 99.81124878 C1.09058679 100.57633696 1.09888292 101.34142513 1.10743046 102.1296978 C1 104 1 104 0 106 C-15.18 106 -30.36 106 -46 106 C-47 96 -47 96 -47 91 C-46.01 90.01 -46.01 90.01 -45 89 C-42.6171875 89.0234375 -42.6171875 89.0234375 -39.875 89.375 C-38.96492188 89.48585938 -38.05484375 89.59671875 -37.1171875 89.7109375 C-36.41851562 89.80632812 -35.71984375 89.90171875 -35 90 C-34.67 89.01 -34.34 88.02 -34 87 C-31.11584117 85.55792059 -28.58278472 85.90605113 -25.375 85.9375 C-24.18648438 85.94652344 -22.99796875 85.95554687 -21.7734375 85.96484375 C-20.85820312 85.97644531 -19.94296875 85.98804688 -19 86 C-19.01110306 85.07149734 -19.02220612 84.14299469 -19.03364563 83.18635559 C-19.13387166 74.43188801 -19.20997723 65.67761337 -19.25906086 56.92270374 C-19.28514391 52.42177143 -19.32051776 47.92131356 -19.37719727 43.4206543 C-19.43156406 39.07640108 -19.46143027 34.73260391 -19.47438622 30.38803673 C-19.48361781 28.73139962 -19.50164546 27.07478721 -19.52865028 25.4183445 C-19.56500498 23.09581399 -19.56994301 20.7751623 -19.56762695 18.45239258 C-19.58560333 17.76906357 -19.60357971 17.08573456 -19.62210083 16.38169861 C-19.5812983 12.59468533 -19.08577565 11.10365128 -16.63883972 8.14677429 C-13.98154358 5.98498515 -11.39599279 4.29786392 -8.375 2.6875 C-7.43398438 2.17574219 -6.49296875 1.66398437 -5.5234375 1.13671875 C-3 0 -3 0 0 0 Z " fill="#E3BE5D" transform="translate(395,357)"/>
<path d="M0 0 C1.32 0.33 2.64 0.66 4 1 C4 39.94 4 78.88 4 119 C0 120 0 120 -3.234375 118.41796875 C-4.41436889 117.6874332 -5.58609197 116.94340071 -6.75 116.1875 C-7.35199219 115.81818359 -7.95398438 115.44886719 -8.57421875 115.06835938 C-10.09202066 114.10983822 -11.55193406 113.06093849 -13 112 C-13 111.34 -13 110.68 -13 110 C-14.65 109.67 -16.3 109.34 -18 109 C-18 108.34 -18 107.68 -18 107 C-17.01 107 -16.02 107 -15 107 C-15.33 81.59 -15.66 56.18 -16 30 C-15.34 30 -14.68 30 -14 30 C-14 29.34 -14 28.68 -14 28 C-11.91796875 26.5625 -11.91796875 26.5625 -9.1875 25 C-6.39855144 23.39021728 -3.68092187 21.78728124 -1 20 C-0.49297483 17.87893205 -0.49297483 17.87893205 -0.48828125 15.4296875 C-0.45283203 14.53378906 -0.41738281 13.63789062 -0.38085938 12.71484375 C-0.35830078 11.77769531 -0.33574219 10.84054688 -0.3125 9.875 C-0.27833984 8.93011719 -0.24417969 7.98523438 -0.20898438 7.01171875 C-0.12635888 4.67459747 -0.05726012 2.33785809 0 0 Z " fill="#E5C261" transform="translate(205,108)"/>
<path d="M0 0 C3 1 3 1 4 3 C4.09805591 5.78160389 4.13453063 8.53819656 4.12698364 11.32008362 C4.12854363 12.19088355 4.13010362 13.06168349 4.13171089 13.9588713 C4.13571823 16.89390313 4.13253227 19.82888376 4.12939453 22.76391602 C4.13074868 24.86108429 4.13252869 26.95825233 4.13470459 29.05541992 C4.13927703 34.76387017 4.13749021 40.47230242 4.1343255 46.18075299 C4.13180127 52.14206317 4.13413959 58.10337177 4.13571167 64.06468201 C4.13753304 74.07624591 4.13512777 84.08780245 4.13037109 94.09936523 C4.12492706 105.6918969 4.1266923 117.28441098 4.1321975 128.87694222 C4.13672779 138.81237392 4.13737963 148.74780032 4.13475883 158.68323272 C4.13319579 164.62504772 4.13300307 170.56685443 4.13629532 176.5086689 C4.13917287 182.09244489 4.13720049 187.6761981 4.13140106 193.25997162 C4.1300729 195.31556345 4.13046852 197.37115719 4.13266373 199.42674828 C4.13537301 202.22015855 4.13199686 205.01349456 4.12698364 207.80690002 C4.12921436 208.63139493 4.13144509 209.45588984 4.13374341 210.30536944 C4.11414993 215.88585007 4.11414993 215.88585007 3 217 C0.30345146 217.07319621 -2.36691458 217.09242537 -5.0625 217.0625 C-5.82111328 217.05798828 -6.57972656 217.05347656 -7.36132812 217.04882812 C-9.24091871 217.0370068 -11.12046899 217.01907078 -13 217 C-12.01 216.01 -12.01 216.01 -11 215 C-10.01 215 -9.02 215 -8 215 C-7.34 212.69 -6.68 210.38 -6 208 C-5.67 208 -5.34 208 -5 208 C-5 209.98 -5 211.96 -5 214 C-4.01 214 -3.02 214 -2 214 C-2 214.66 -2 215.32 -2 216 C-1.34 216 -0.68 216 0 216 C0 144.72 0 73.44 0 0 Z " fill="#E0CA6C" transform="translate(205,246)"/>
<path d="M0 0 C0.33 0 0.66 0 1 0 C1 66.33 1 132.66 1 201 C0.67 201 0.34 201 0 201 C0 197.04 0 193.08 0 189 C-0.99 189 -1.98 189 -3 189 C-3.04666439 165.1743142 -3.08196151 141.34863523 -3.10362434 117.52291298 C-3.1139489 106.46089783 -3.12803168 95.39891102 -3.15087891 84.33691406 C-3.17077677 74.69834512 -3.18370785 65.0597967 -3.18817699 55.42120779 C-3.1907905 50.31488402 -3.1969577 45.20861899 -3.21146011 40.102314 C-3.22498716 35.30074719 -3.22923258 30.49926357 -3.22621536 25.69767952 C-3.22676772 23.9311522 -3.2307741 22.16462224 -3.23841095 20.39811134 C-3.24829603 17.99460266 -3.24599268 15.59141208 -3.24050903 13.18789673 C-3.24633472 12.48167887 -3.2521604 11.77546102 -3.25816262 11.04784262 C-3.22824242 6.22824242 -3.22824242 6.22824242 -1 4 C-0.3574765 1.93125966 -0.3574765 1.93125966 0 0 Z " fill="#E5B85E" transform="translate(395,96)"/>
<path d="M0 0 C0.99 0.33 1.98 0.66 3 1 C2.67 51.49 2.34 101.98 2 154 C0.68 154.33 -0.64 154.66 -2 155 C-2.02339698 136.52782541 -2.04101252 118.05565384 -2.05181217 99.58346748 C-2.0569607 91.00583525 -2.06397583 82.42821225 -2.07543945 73.85058594 C-2.08543045 66.37125641 -2.09186392 58.89193356 -2.09408849 51.41259754 C-2.09538811 47.45516245 -2.09842637 43.49774648 -2.10573006 39.54031754 C-2.11256004 35.80903237 -2.11460287 32.07777405 -2.11310768 28.34648323 C-2.11351033 26.33737469 -2.11886894 24.32826901 -2.12442017 22.31916809 C-2.10396209 4.20792418 -2.10396209 4.20792418 0 0 Z " fill="#E7CC76" transform="translate(303,290)"/>
<path d="M0 0 C0.99 0.99 1.98 1.98 3 3 C2.34 3 1.68 3 1 3 C1 3.66 1 4.32 1 5 C1.66 5.33 2.32 5.66 3 6 C2.91621575 30.73843639 2.82112552 55.47680678 2.71247292 80.21514702 C2.6622921 91.70087214 2.61584992 103.18658993 2.578125 114.67236328 C2.54524517 124.68013529 2.50543637 134.68785127 2.45720994 144.69556153 C2.43190496 149.99747687 2.41013561 155.29935485 2.39665604 160.60131454 C2.38387183 165.58677917 2.36185722 170.57211593 2.33261681 175.55751038 C2.32351242 177.39174649 2.31784418 179.22600322 2.31578636 181.06026077 C2.31248391 183.55577295 2.297062 186.05091813 2.2784729 188.5463562 C2.28040763 189.27981069 2.28234237 190.01326519 2.28433573 190.76894557 C2.22824242 195.77175758 2.22824242 195.77175758 0 198 C-1.72300856 196.27699144 -1.12493309 194.07394418 -1.13374341 191.7764855 C-1.13151268 191.02202767 -1.12928196 190.26756983 -1.12698364 189.49024963 C-1.12854363 188.69451363 -1.13010362 187.89877763 -1.13171089 187.07892841 C-1.13572417 184.39187462 -1.13252997 181.70487656 -1.12939453 179.01782227 C-1.13074844 177.09976162 -1.13252831 175.18170124 -1.13470459 173.26364136 C-1.1392805 168.03851987 -1.13748864 162.81341803 -1.1343255 157.58829618 C-1.13180235 152.1319379 -1.13413935 146.67558136 -1.13571167 141.21922302 C-1.13753365 132.05329078 -1.13512647 122.88736657 -1.13037109 113.72143555 C-1.12493004 103.11108046 -1.12668988 92.5007446 -1.1321975 81.89038998 C-1.13672975 72.79656928 -1.13737858 63.70275438 -1.13475883 54.60893291 C-1.13319647 49.17065201 -1.13300115 43.73238014 -1.13629532 38.29409981 C-1.1391756 33.18145851 -1.13719542 28.06884207 -1.13140106 22.95620346 C-1.13007424 21.07518874 -1.13046627 19.19417194 -1.13266373 17.31315804 C-1.13537831 14.75432139 -1.13199026 12.19556545 -1.12698364 9.63673401 C-1.12921436 8.88450689 -1.13144509 8.13227978 -1.13374341 7.3572579 C-1.11414996 2.22829992 -1.11414996 2.22829992 0 0 Z " fill="#B79D4D" transform="translate(248,11)"/>
<path d="M0 0 C2.97 0.495 2.97 0.495 6 1 C5.01 2.485 5.01 2.485 4 4 C3.68596691 7.18112633 3.68596691 7.18112633 3.7215271 10.89054871 C3.7128385 11.94795013 3.7128385 11.94795013 3.70397437 13.02671319 C3.68693708 15.39440105 3.6840947 17.76189442 3.68115234 20.12963867 C3.67185673 21.82464579 3.66168861 23.51964832 3.65071106 25.21464539 C3.62335562 29.82174906 3.60824526 34.42882207 3.59528303 39.03598571 C3.57967671 43.84867744 3.55287856 48.66130632 3.5272522 53.47395325 C3.48042008 62.58989973 3.44369745 71.70585798 3.41057932 80.82186347 C3.37238922 91.19904163 3.32297094 101.57615672 3.27259517 111.95328176 C3.1692094 133.30214131 3.07997064 154.65104075 3 176 C2.01 176 1.02 176 0 176 C0 117.92 0 59.84 0 0 Z " fill="#B79C4D" transform="translate(247,272)"/>
<path d="M0 0 C1.32 0.33 2.64 0.66 4 1 C4 33.01 4 65.02 4 98 C2.02 98.495 2.02 98.495 0 99 C0 66.33 0 33.66 0 0 Z " fill="#E6C875" transform="translate(205,129)"/>
<path d="M0 0 C0.66 0 1.32 0 2 0 C2 29.04 2 58.08 2 88 C0.02 88.99 0.02 88.99 -2 90 C-2.04626844 78.56078364 -2.08184119 67.12158941 -2.10362434 55.68229866 C-2.11407729 50.37101062 -2.12826397 45.05978644 -2.15087891 39.74853516 C-2.17255352 34.62627405 -2.18455723 29.5040745 -2.18975449 24.38177109 C-2.19345994 22.4240713 -2.20069541 20.46637502 -2.21146011 18.50870132 C-2.22590357 15.77411779 -2.22798096 13.0397911 -2.22705078 10.30517578 C-2.23424133 9.48950134 -2.24143188 8.6738269 -2.24884033 7.83343506 C-2.22810432 2.22810432 -2.22810432 2.22810432 0 0 Z " fill="#EBCA71" transform="translate(393,358)"/>
<path d="M0 0 C0.66 0 1.32 0 2 0 C2.09337924 17.28919587 2.16394761 34.57831322 2.20724869 51.86770344 C2.22788719 59.89520502 2.25603218 67.92255006 2.30175781 75.94995117 C2.34158641 82.94541898 2.36742344 89.94077344 2.37635398 96.93635148 C2.38157556 100.64162772 2.39387427 104.34657964 2.42292023 108.05175209 C2.45505855 112.18479516 2.45596199 116.31727191 2.45410156 120.45043945 C2.47567322 122.29973305 2.47567322 122.29973305 2.49768066 124.18638611 C2.49218201 125.30959259 2.48668335 126.43279907 2.48101807 127.59004211 C2.48470524 128.56806447 2.48839241 129.54608683 2.49219131 130.55374622 C2 133 2 133 -0.03006363 134.83812237 C-0.68014263 135.22154199 -1.33022163 135.60496161 -2 136 C-1.85753281 123.45829349 -1.71152309 110.91663032 -1.5625 98.375 C-1.55147877 97.44729042 -1.54045753 96.51958084 -1.52910233 95.56375885 C-1.14946082 63.70615504 -0.66156831 31.85313132 0 0 Z " fill="#DEC16C" transform="translate(474,312)"/>
<path d="M0 0 C0.66 0.99 1.32 1.98 2 3 C1.67 3.99 1.34 4.98 1 6 C0.88044119 8.5389383 0.81476036 11.05257824 0.79467773 13.5925293 C0.78477814 14.36349945 0.77487854 15.1344696 0.76467896 15.92880249 C0.73309044 18.47724333 0.708317 21.02570282 0.68359375 23.57421875 C0.66302194 25.3411355 0.6420254 27.10804736 0.62062073 28.87495422 C0.56542355 33.52572667 0.51600388 38.17654336 0.46777344 42.82739258 C0.41754124 47.57311949 0.36186414 52.31878214 0.30664062 57.06445312 C0.19908784 66.37624719 0.09763644 75.68809705 0 85 C-0.99 85.495 -0.99 85.495 -2 86 C-3.52933078 82.94133843 -3.1560998 79.74155376 -3.16113281 76.38500977 C-3.16858017 75.20674118 -3.16858017 75.20674118 -3.17617798 74.00466919 C-3.19081059 71.40023938 -3.19760287 68.79587045 -3.203125 66.19140625 C-3.20887488 64.38541156 -3.21463263 62.57941689 -3.22039795 60.77342224 C-3.2309106 56.98460607 -3.23675176 53.19581113 -3.24023438 49.40698242 C-3.24572433 44.5465444 -3.26976185 39.68638578 -3.29820633 34.8260355 C-3.31680649 31.09518099 -3.32203687 27.3643942 -3.32357025 23.63349724 C-3.32660248 21.84129239 -3.33465014 20.04908889 -3.34775543 18.2569294 C-3.36476391 15.75252979 -3.36294884 13.2488183 -3.35644531 10.74438477 C-3.3656601 10.00090286 -3.37487488 9.25742096 -3.3843689 8.4914093 C-3.34322649 3.44733596 -3.34322649 3.44733596 -1.47772217 1.01597595 C-0.74624969 0.51306786 -0.74624969 0.51306786 0 0 Z " fill="#B79B4D" transform="translate(348,361)"/>
<path d="M0 0 C0.33 0 0.66 0 1 0 C1 61.71 1 123.42 1 187 C1.99 187 2.98 187 4 187 C4 189.64 4 192.28 4 195 C3.01 195.33 2.02 195.66 1 196 C0.08116024 191.3280692 -0.13940064 186.80975304 -0.12025452 182.06533813 C-0.12110894 181.28433664 -0.12196337 180.50333514 -0.12284368 179.69866693 C-0.12448584 177.09156814 -0.11899787 174.48453423 -0.11352539 171.87744141 C-0.11324322 170.00465903 -0.11340184 168.13187655 -0.1139679 166.25909424 C-0.1142547 161.18108939 -0.10837675 156.10310817 -0.10139394 151.02510881 C-0.09514105 145.7159897 -0.09455507 140.40687003 -0.09336853 135.0977478 C-0.09026093 125.04689088 -0.08205522 114.99604483 -0.07201904 104.94519269 C-0.06084019 93.50150008 -0.05534298 82.05780695 -0.05032361 70.61411023 C-0.03987215 47.07606746 -0.02228374 23.53803434 0 0 Z " fill="#E8C66E" transform="translate(391,98)"/>
<path d="M0 0 C3 1 3 1 4 3 C4.24352234 7.32855845 4.18519924 11.66536123 4.1875 16 C4.19974609 17.21429688 4.21199219 18.42859375 4.22460938 19.6796875 C4.22654297 20.83726562 4.22847656 21.99484375 4.23046875 23.1875 C4.23457764 24.25355469 4.23868652 25.31960938 4.24291992 26.41796875 C4 29 4 29 2 31 C1.78284399 33.46710643 1.6886374 35.82549782 1.68115234 38.29541016 C1.67110672 39.04672714 1.6610611 39.79804413 1.65071106 40.5721283 C1.61976449 43.06109841 1.60281235 45.54996043 1.5859375 48.0390625 C1.56723505 49.76257261 1.54766234 51.48607348 1.5272522 53.20956421 C1.47582735 57.75018881 1.43625722 62.29084314 1.39910889 66.831604 C1.35913396 71.46333226 1.308012 76.09493578 1.2578125 80.7265625 C1.16093073 89.81762084 1.07656533 98.90874945 1 108 C0.67 108 0.34 108 0 108 C0 72.36 0 36.72 0 0 Z " fill="#E2C46D" transform="translate(205,246)"/>
<path d="M0 0 C0.33 0.66 0.66 1.32 1 2 C1.99 2.33 2.98 2.66 4 3 C3.93118026 8.07250914 3.84324306 13.14418939 3.73754883 18.21606445 C3.70428828 19.94155693 3.67625981 21.66715849 3.65356445 23.39282227 C3.62003847 25.87303166 3.56772594 28.3522403 3.51171875 30.83203125 C3.50532883 31.60400345 3.4989389 32.37597565 3.49235535 33.17134094 C3.34520526 38.52770139 3.34520526 38.52770139 1.53051758 41.01049805 C0 42 0 42 -1 42 C-1.02488717 37.30436582 -1.04294796 32.60877081 -1.05493164 27.91308594 C-1.05993231 26.31867808 -1.06673501 24.72427475 -1.07543945 23.12988281 C-1.0876933 20.82616046 -1.0932711 18.52249922 -1.09765625 16.21875 C-1.10281754 15.51633179 -1.10797882 14.81391357 -1.11329651 14.09020996 C-1.11382708 9.31279059 -0.67025518 4.73121306 0 0 Z " fill="#EAC972" transform="translate(392,298)"/>
<path d="M0 0 C0.33 0 0.66 0 1 0 C1 19.47 1 38.94 1 59 C0.34 59 -0.32 59 -1 59 C-1.16969108 52.65051769 -1.32928914 46.30083665 -1.48217773 39.95092773 C-1.53524259 37.79494609 -1.5905394 35.6390181 -1.64819336 33.4831543 C-1.73110623 30.36779346 -1.80574277 27.25232204 -1.87890625 24.13671875 C-1.90594131 23.18729904 -1.93297638 22.23787933 -1.96083069 21.25968933 C-2.32365897 4.64731793 -2.32365897 4.64731793 0 0 Z " fill="#F6D379" transform="translate(394,376)"/>
<path d="M0 0 C0.99 0.33 1.98 0.66 3 1 C3 4.96 3 8.92 3 13 C1.68 13.33 0.36 13.66 -1 14 C-1 35.45 -1 56.9 -1 79 C-1.33 79 -1.66 79 -2 79 C-2.02326932 70.4369955 -2.04098897 61.87400443 -2.05181217 53.31097603 C-2.05700928 49.33393352 -2.06404866 45.35691279 -2.07543945 41.37988281 C-2.08638189 37.53490869 -2.09230068 33.68995539 -2.09487724 29.84496689 C-2.09671117 28.38511706 -2.10029195 26.92526825 -2.10573006 25.4654274 C-2.1811466 4.3622932 -2.1811466 4.3622932 0 0 Z " fill="#E4C674" transform="translate(303,290)"/>
<path d="M0 0 C0.33 0.66 0.66 1.32 1 2 C0.34 2 -0.32 2 -1 2 C-1.0817749 2.60682617 -1.1635498 3.21365234 -1.24780273 3.83886719 C-2.243401 6.69931374 -3.39102614 7.17285305 -6.03515625 8.578125 C-6.84404297 9.01640625 -7.65292969 9.4546875 -8.48632812 9.90625 C-9.33646484 10.3496875 -10.18660156 10.793125 -11.0625 11.25 C-11.91650391 11.70890625 -12.77050781 12.1678125 -13.65039062 12.640625 C-15.7608593 13.77249647 -17.8771625 14.89155136 -20 16 C-20.66 15.34 -21.32 14.68 -22 14 C-20.37660195 12.29115995 -18.70680947 10.62553283 -17 9 C-16.34 9 -15.68 9 -15 9 C-15 8.34 -15 7.68 -15 7 C-12.69 6.34 -10.38 5.68 -8 5 C-8 4.01 -8 3.02 -8 2 C-6.8553125 2.061875 -6.8553125 2.061875 -5.6875 2.125 C-2.77281584 2.22080824 -2.77281584 2.22080824 0 0 Z " fill="#C9AA52" transform="translate(192,134)"/>
<path d="M0 0 C0.66 0 1.32 0 2 0 C2.02886751 4.14581887 2.04675327 8.29161216 2.0625 12.4375 C2.07087891 13.62150391 2.07925781 14.80550781 2.08789062 16.02539062 C2.09272461 17.71245117 2.09272461 17.71245117 2.09765625 19.43359375 C2.10551147 20.99678345 2.10551147 20.99678345 2.11352539 22.59155273 C2 25 2 25 1 26 C-1.69654854 26.07319621 -4.36691458 26.09242537 -7.0625 26.0625 C-7.82111328 26.05798828 -8.57972656 26.05347656 -9.36132812 26.04882812 C-11.24091871 26.0370068 -13.12046899 26.01907078 -15 26 C-14.34 25.34 -13.68 24.68 -13 24 C-12.01 24 -11.02 24 -10 24 C-9.01 20.535 -9.01 20.535 -8 17 C-7.67 17 -7.34 17 -7 17 C-7 18.98 -7 20.96 -7 23 C-6.01 23 -5.02 23 -4 23 C-4 23.66 -4 24.32 -4 25 C-2.68 25 -1.36 25 0 25 C0 16.75 0 8.5 0 0 Z " fill="#E8CD5F" transform="translate(207,437)"/>
<path d="M0 0 C2.0625 0.4375 2.0625 0.4375 4 1 C4 3 4 3 2.25 5 C0.19435038 6.82724411 -1.55534842 7.81982337 -4 9 C-4.33 9.66 -4.66 10.32 -5 11 C-5.99 10.67 -6.98 10.34 -8 10 C-8 9.34 -8 8.68 -8 8 C-8.99 8.495 -8.99 8.495 -10 9 C-9.67 9.66 -9.34 10.32 -9 11 C-10.98 11.33 -12.96 11.66 -15 12 C-15 10.68 -15 9.36 -15 8 C-14.00097656 7.50628906 -13.00195312 7.01257813 -11.97265625 6.50390625 C-10.6692186 5.85687605 -9.36583602 5.20973489 -8.0625 4.5625 C-7.40314453 4.23701172 -6.74378906 3.91152344 -6.06445312 3.57617188 C-2.81709965 2.10888654 -2.81709965 2.10888654 0 0 Z " fill="#D7BA50" transform="translate(470,293)"/>
<path d="M0 0 C0.02685412 2.31243792 0.04632841 4.6249627 0.0625 6.9375 C0.07410156 8.22527344 0.08570313 9.51304687 0.09765625 10.83984375 C0 14 0 14 -1 15 C-1.15825258 16.99782126 -1.25119171 19.00088834 -1.31640625 21.00390625 C-1.35830078 22.21884766 -1.40019531 23.43378906 -1.44335938 24.68554688 C-1.48267578 25.96494141 -1.52199219 27.24433594 -1.5625 28.5625 C-1.60568359 29.84576172 -1.64886719 31.12902344 -1.69335938 32.45117188 C-1.799848 35.63399853 -1.90185962 38.81690674 -2 42 C-2.33 42 -2.66 42 -3 42 C-3.21673791 36.34052158 -3.41366 30.68083702 -3.59204102 25.02001953 C-3.65556849 23.09339864 -3.72456017 21.16694999 -3.79907227 19.24072266 C-3.90508498 16.47585402 -3.99159123 13.71096629 -4.07421875 10.9453125 C-4.11157639 10.0806839 -4.14893402 9.2160553 -4.18742371 8.32522583 C-4.2487793 5.89892578 -4.2487793 5.89892578 -4 2 C-1 0 -1 0 0 0 Z " fill="#C9AF60" transform="translate(250,207)"/>
<path d="M0 0 C0.02691685 2.45840605 0.04679802 4.91651882 0.0625 7.375 C0.07087891 8.07367188 0.07925781 8.77234375 0.08789062 9.4921875 C0.11328125 14.7734375 0.11328125 14.7734375 -1 17 C-1.99 17 -2.98 17 -4 17 C-6.73864384 6.3403555 -6.73864384 6.3403555 -4 1 C-2 0 -2 0 0 0 Z " fill="#E7CA5A" transform="translate(396,446)"/>
<path d="M0 0 C1.27133789 0.00966797 1.27133789 0.00966797 2.56835938 0.01953125 C3.8899707 0.04466797 3.8899707 0.04466797 5.23828125 0.0703125 C6.57729492 0.08384766 6.57729492 0.08384766 7.94335938 0.09765625 C10.14610439 0.12121502 12.34830713 0.15410921 14.55078125 0.1953125 C13.89078125 0.8553125 13.23078125 1.5153125 12.55078125 2.1953125 C13.21078125 2.8553125 13.87078125 3.5153125 14.55078125 4.1953125 C9.80078125 5.3203125 9.80078125 5.3203125 7.55078125 4.1953125 C4.9992047 4.123639 2.47605154 4.10222808 -0.07421875 4.1328125 C-1.13382812 4.13958008 -1.13382812 4.13958008 -2.21484375 4.14648438 C-3.9596715 4.15827375 -5.70445575 4.17620926 -7.44921875 4.1953125 C-7.44921875 3.5353125 -7.44921875 2.8753125 -7.44921875 2.1953125 C-4.2960709 0.09321393 -3.58818794 -0.0481636 0 0 Z " fill="#CCB237" transform="translate(269.44921875,442.8046875)"/>
<path d="M0 0 C0.33 1.32 0.66 2.64 1 4 C-1.22187927 5.34695793 -3.45117463 6.67741796 -5.6875 8 C-6.31333984 8.3815625 -6.93917969 8.763125 -7.58398438 9.15625 C-11.1956518 11.2740864 -13.78431589 12.51587721 -18 12 C-17.67 11.34 -17.34 10.68 -17 10 C-16.01 10 -15.02 10 -14 10 C-14 9.34 -14 8.68 -14 8 C-12.25 5.875 -12.25 5.875 -10 4 C-8.68 4 -7.36 4 -6 4 C-5.67 3.01 -5.34 2.02 -5 1 C-3.35 0.67 -1.7 0.34 0 0 Z " fill="#CCAC54" transform="translate(459,317)"/>
<path d="M0 0 C5.97897503 -0.74737188 9.32379721 1.6768102 14 5 C13.67 5.99 13.34 6.98 13 8 C11.68 8 10.36 8 9 8 C9 7.34 9 6.68 9 6 C8.34 6 7.68 6 7 6 C6.67 5.34 6.34 4.68 6 4 C5.01 4.33 4.02 4.66 3 5 C2.67 5.99 2.34 6.98 2 8 C1.34 7.67 0.68 7.34 0 7 C0 4.69 0 2.38 0 0 Z " fill="#BB9246" transform="translate(246,2)"/>
<path d="M0 0 C1.4606285 2.64738916 2 3.89448334 2 7 C0.68 7 -0.64 7 -2 7 C-2.061875 7.598125 -2.12375 8.19625 -2.1875 8.8125 C-3.33554682 11.90339529 -5.10547052 12.5880344 -8 14 C-8.66 14 -9.32 14 -10 14 C-10.33 13.01 -10.66 12.02 -11 11 C-10.195625 10.773125 -9.39125 10.54625 -8.5625 10.3125 C-7.716875 9.879375 -6.87125 9.44625 -6 9 C-5.10613836 6.45224694 -5.10613836 6.45224694 -5 4 C-4.34 4 -3.68 4 -3 4 C-3 3.34 -3 2.68 -3 2 C-2.01 2 -1.02 2 0 2 C0 1.34 0 0.68 0 0 Z " fill="#D6B855" transform="translate(475,303)"/>
<path d="M0 0 C0.33 0 0.66 0 1 0 C1 10.23 1 20.46 1 31 C0.34 31 -0.32 31 -1 31 C-1 30.34 -1 29.68 -1 29 C-1.66 28.67 -2.32 28.34 -3 28 C-2.34 28 -1.68 28 -1 28 C-1.00523682 27.18732666 -1.01047363 26.37465332 -1.01586914 25.53735352 C-1.03656994 21.87907678 -1.04963803 18.22081233 -1.0625 14.5625 C-1.07506836 12.6434082 -1.07506836 12.6434082 -1.08789062 10.68554688 C-1.09111328 9.47060547 -1.09433594 8.25566406 -1.09765625 7.00390625 C-1.10289307 5.87799072 -1.10812988 4.7520752 -1.11352539 3.59204102 C-1 1 -1 1 0 0 Z " fill="#B49C51" transform="translate(249,221)"/>
<path d="M0 0 C2.31 0.33 4.62 0.66 7 1 C6.67 1.99 6.34 2.98 6 4 C5.01 4 4.02 4 3 4 C3 7.63 3 11.26 3 15 C2.01 14.01 1.02 13.02 0 12 C-2.10332891 11.28552357 -2.10332891 11.28552357 -4 11 C-4.33 11.66 -4.66 12.32 -5 13 C-5.33 11.68 -5.66 10.36 -6 9 C-4.02 9 -2.04 9 0 9 C0 6.03 0 3.06 0 0 Z " fill="#E7C758" transform="translate(190,434)"/>
<path d="M0 0 C0.7425 0.185625 1.485 0.37125 2.25 0.5625 C2.8275 0.706875 3.405 0.85125 4 1 C4 1.66 4 2.32 4 3 C5.65 3.33 7.3 3.66 9 4 C9 4.99 9 5.98 9 7 C9.66 7 10.32 7 11 7 C11 7.66 11 8.32 11 9 C6.91741122 8.39655166 3.8528697 7.05381582 0.25 5.0625 C-0.71421875 4.53785156 -1.6784375 4.01320312 -2.671875 3.47265625 C-5 2 -5 2 -6 0 C-3.45555769 -1.27222115 -2.67379418 -0.78641005 0 0 Z " fill="#BFA05C" transform="translate(179,228)"/>
<path d="M0 0 C0.66 0 1.32 0 2 0 C2 8.91 2 17.82 2 27 C1.01 27.33 0.02 27.66 -1 28 C-0.67 18.76 -0.34 9.52 0 0 Z " fill="#F2D174" transform="translate(393,308)"/>
<path d="M0 0 C0.99 0.33 1.98 0.66 3 1 C3.16858098 3.0831793 3.33479255 5.16655044 3.5 7.25 C3.5928125 8.41015625 3.685625 9.5703125 3.78125 10.765625 C3.94404644 13.17268658 4 15.58743951 4 18 C2.68 17.67 1.36 17.34 0 17 C0 11.39 0 5.78 0 0 Z " fill="#C8A959" transform="translate(345,445)"/>
<path d="M0 0 C1.65 0 3.3 0 5 0 C5 0.66 5 1.32 5 2 C5.66 2 6.32 2 7 2 C7.33 3.65 7.66 5.3 8 7 C5.525 6.01 5.525 6.01 3 5 C3.01160156 5.73605469 3.02320313 6.47210938 3.03515625 7.23046875 C3.04417969 8.20628906 3.05320312 9.18210937 3.0625 10.1875 C3.07410156 11.15042969 3.08570313 12.11335938 3.09765625 13.10546875 C3.00486622 15.85576513 2.62111685 18.32479591 2 21 C1.67 21 1.34 21 1 21 C1.01160156 19.73542969 1.02320313 18.47085938 1.03515625 17.16796875 C1.04453566 15.50781398 1.0536357 13.84765761 1.0625 12.1875 C1.07087891 11.35412109 1.07925781 10.52074219 1.08789062 9.66210938 C1.09111328 8.85966797 1.09433594 8.05722656 1.09765625 7.23046875 C1.10289307 6.49207764 1.10812988 5.75368652 1.11352539 4.99291992 C1.07523213 2.78942591 1.07523213 2.78942591 0 0 Z " fill="#BDA153" transform="translate(263,27)"/>
<path d="M0 0 C0.53625 0.226875 1.0725 0.45375 1.625 0.6875 C0.63658836 3.3831681 -0.06872185 4.50373311 -2.5625 6 C-6.09386726 6.86322311 -8.835746 6.38147137 -12.375 5.6875 C-4.5862069 -0.60344828 -4.5862069 -0.60344828 0 0 Z " fill="#BD9E4D" transform="translate(362.375,355.3125)"/>
<path d="M0 0 C4.82360189 -0.19294408 8.49646738 0.24252386 13 2 C13.80967438 4.91482778 14.21845993 6.46113217 13.0625 9.3125 C12.711875 9.869375 12.36125 10.42625 12 11 C11.92458984 10.11054687 11.92458984 10.11054687 11.84765625 9.203125 C10.59028237 5.93511179 8.50414731 5.30094806 5.4375 3.75 C4.42558594 3.22921875 3.41367187 2.7084375 2.37109375 2.171875 C1.58863281 1.78515625 0.80617188 1.3984375 0 1 C0 0.67 0 0.34 0 0 Z " fill="#DBBD5D" transform="translate(364,87)"/>
<path d="M0 0 C2.64 0 5.28 0 8 0 C7.67 1.32 7.34 2.64 7 4 C8.65 4.33 10.3 4.66 12 5 C11.67 6.32 11.34 7.64 11 9 C7.37 7.02 3.74 5.04 0 3 C0 2.01 0 1.02 0 0 Z " fill="#C0A25B" transform="translate(277,35)"/>
<path d="M0 0 C0.33 0.99 0.66 1.98 1 3 C2.32 2.67 3.64 2.34 5 2 C5 2.66 5 3.32 5 4 C6.32 4 7.64 4 9 4 C9 4.66 9 5.32 9 6 C9.66 6 10.32 6 11 6 C11 6.66 11 7.32 11 8 C11.66 8 12.32 8 13 8 C13 8.66 13 9.32 13 10 C7.82360866 9.62123966 3.5263963 7.87068943 0 4 C0 2.68 0 1.36 0 0 Z " fill="#C4A663" transform="translate(208,245)"/>
<path d="M0 0 C3.40312738 1.05875074 6.01353231 2.00902154 9 4 C8.67 5.32 8.34 6.64 8 8 C6.35 8 4.7 8 3 8 C2.67 7.01 2.34 6.02 2 5 C1.01 4.67 0.02 4.34 -1 4 C-0.67 2.68 -0.34 1.36 0 0 Z " fill="#C09F58" transform="translate(171,206)"/>
<path d="M0 0 C3.63 1.98 7.26 3.96 11 6 C9.68 7.32 8.36 8.64 7 10 C6.01 9.67 5.02 9.34 4 9 C3.87625 8.195625 3.7525 7.39125 3.625 6.5625 C3.41875 5.716875 3.2125 4.87125 3 4 C2.34 3.67 1.68 3.34 1 3 C0.67 3.99 0.34 4.98 0 6 C-0.66 6 -1.32 6 -2 6 C-1.125 1.125 -1.125 1.125 0 0 Z " fill="#BA9B47" transform="translate(156,197)"/>
<path d="M0 0 C0 0.66 0 1.32 0 2 C-1.32 2 -2.64 2 -4 2 C-4.33 2.99 -4.66 3.98 -5 5 C-8.5625 6.1875 -8.5625 6.1875 -12 7 C-11.72776186 3.64239623 -11.41629629 2.35682539 -8.8125 0.125 C-5.41866747 -1.23253301 -3.49402134 -0.89381941 0 0 Z " fill="#B99A54" transform="translate(378,349)"/>
<path d="M0 0 C-2.86698342 3.49413605 -4.84150148 5.28836874 -9.3125 5.8125 C-11.1378125 5.9053125 -11.1378125 5.9053125 -13 6 C-11.78477565 2.35432696 -10.15416646 1.51432978 -6.85546875 -0.28125 C-4.29350521 -1.27367377 -2.54294225 -0.92470627 0 0 Z " fill="#CAAD49" transform="translate(440,313)"/>
<path d="M0 0 C0.99 0.33 1.98 0.66 3 1 C3 4.96 3 8.92 3 13 C2.67 12.01 2.34 11.02 2 10 C1.34 10 0.68 10 0 10 C0 10.99 0 11.98 0 13 C-0.66 12.67 -1.32 12.34 -2 12 C-1.85904936 10.3745692 -1.71207913 8.74965949 -1.5625 7.125 C-1.48128906 6.22007812 -1.40007812 5.31515625 -1.31640625 4.3828125 C-1 2 -1 2 0 0 Z " fill="#E9CF4A" transform="translate(303,290)"/>
<path d="M0 0 C0.33 0.99 0.66 1.98 1 3 C1.763125 3.144375 2.52625 3.28875 3.3125 3.4375 C6 4 6 4 9 5 C9 5.66 9 6.32 9 7 C9.99 7 10.98 7 12 7 C12 7.66 12 8.32 12 9 C6.29290936 8.53411505 2.84060277 7.06242216 -2 4 C-1.34 2.68 -0.68 1.36 0 0 Z " fill="#C9A954" transform="translate(328,62)"/>
<path d="M0 0 C0.33 0.66 0.66 1.32 1 2 C2.65 2 4.3 2 6 2 C6 1.34 6 0.68 6 0 C6.99 0 7.98 0 9 0 C9.33 0.99 9.66 1.98 10 3 C3.6 7.06153846 3.6 7.06153846 0.5625 6.75 C0.046875 6.5025 -0.46875 6.255 -1 6 C-1.042721 4.33388095 -1.04063832 2.66617115 -1 1 C-0.67 0.67 -0.34 0.34 0 0 Z " fill="#BBA14F" transform="translate(362,369)"/>
<path d="M0 0 C0.33 0 0.66 0 1 0 C1 3.63 1 7.26 1 11 C1.99 11 2.98 11 4 11 C4 13.64 4 16.28 4 19 C3.01 19.33 2.02 19.66 1 20 C0.11722245 15.48184719 -0.10589503 11.22487306 -0.0625 6.625 C-0.05347656 5.37976563 -0.04445313 4.13453125 -0.03515625 2.8515625 C-0.02355469 1.91054688 -0.01195312 0.96953125 0 0 Z " fill="#E3BF67" transform="translate(391,274)"/>
<path d="M0 0 C3.33333333 1.66666667 6.66666667 3.33333333 10 5 C9.67 5.99 9.34 6.98 9 8 C7.02 8 5.04 8 3 8 C0 2.25 0 2.25 0 0 Z " fill="#DCBC57" transform="translate(293,277)"/>
<path d="M0 0 C1.0625 1.875 1.0625 1.875 2 4 C1 6 1 6 -0.8125 6.625 C-3 7 -3 7 -7 7 C-7 6.01 -7 5.02 -7 4 C-4.69 2.68 -2.38 1.36 0 0 Z " fill="#D2B249" transform="translate(447,305)"/>
<path d="M0 0 C0.99 0.33 1.98 0.66 3 1 C1.87548273 3.9719385 0.77706209 6.33440687 -1 9 C-3.9375 8.625 -3.9375 8.625 -7 8 C-7.33 7.34 -7.66 6.68 -8 6 C-6.68 6.33 -5.36 6.66 -4 7 C-3.525625 6.030625 -3.05125 5.06125 -2.5625 4.0625 C-1 1 -1 1 0 0 Z " fill="#C6A252" transform="translate(312,46)"/>
<path d="M0 0 C4.67692308 1.47692308 4.67692308 1.47692308 6.3125 4.125 C6.539375 4.74375 6.76625 5.3625 7 6 C5.25 6.6875 5.25 6.6875 3 7 C0.75 5.5625 0.75 5.5625 -1 4 C-0.67 2.68 -0.34 1.36 0 0 Z " fill="#E1BD64" transform="translate(388,80)"/>
<path d="M0 0 C1.22589844 0.01353516 1.22589844 0.01353516 2.4765625 0.02734375 C3.41628906 0.04474609 3.41628906 0.04474609 4.375 0.0625 C4.375 1.0525 4.375 2.0425 4.375 3.0625 C0.745 3.0625 -2.885 3.0625 -6.625 3.0625 C-6.625 2.4025 -6.625 1.7425 -6.625 1.0625 C-4.21954362 -0.14022819 -2.67503047 -0.03821472 0 0 Z " fill="#CEA73F" transform="translate(161.625,459.9375)"/>
<path d="M0 0 C-3.19990508 2.74277578 -6.00499382 4.6302836 -10 6 C-10 4.68 -10 3.36 -10 2 C-6.47120856 -0.92385576 -4.34741868 -1.36633159 0 0 Z " fill="#B8A155" transform="translate(115,182)"/>
<path d="M0 0 C1.32 0.99 2.64 1.98 4 3 C1.36 4.65 -1.28 6.3 -4 8 C-4.33 7.01 -4.66 6.02 -5 5 C-3.35 3.35 -1.7 1.7 0 0 Z " fill="#B8954A" transform="translate(88,175)"/>
<path d="M0 0 C0.33 0.99 0.66 1.98 1 3 C-0.2065625 3.6496875 -0.2065625 3.6496875 -1.4375 4.3125 C-4.27846354 5.80474002 -4.27846354 5.80474002 -5 9 C-6.32 8.34 -7.64 7.68 -9 7 C-6.19195732 4.03595495 -3.81684226 1.55500981 0 0 Z " fill="#CCA14C" transform="translate(172,127)"/>
<path d="M0 0 C0.33 0 0.66 0 1 0 C0.67 5.94 0.34 11.88 0 18 C-2 16 -2 16 -2.265625 13.57421875 C-2.26046875 12.62160156 -2.2553125 11.66898438 -2.25 10.6875 C-2.25515625 9.74261719 -2.2603125 8.79773438 -2.265625 7.82421875 C-1.98814045 4.87390511 -1.23053508 2.68080856 0 0 Z " fill="#F4D25A" transform="translate(395,96)"/>
<path d="M0 0 C0.99 0 1.98 0 3 0 C3 0.66 3 1.32 3 2 C-5.261959 6.59225513 -5.261959 6.59225513 -10 6 C-9.67 5.34 -9.34 4.68 -9 4 C-8.01 4 -7.02 4 -6 4 C-6 3.34 -6 2.68 -6 2 C-2.25 0.875 -2.25 0.875 0 2 C0 1.34 0 0.68 0 0 Z " fill="#CEB74F" transform="translate(451,323)"/>
<path d="M0 0 C0.99 1.32 1.98 2.64 3 4 C0.03 5.32 -2.94 6.64 -6 8 C-4.52307692 2.33846154 -4.52307692 2.33846154 -1.875 0.625 C-0.946875 0.315625 -0.946875 0.315625 0 0 Z " fill="#C5A351" transform="translate(150,140)"/>
<path d="M0 0 C2.96175123 0.61277612 4.38058783 1.25372522 7 3 C6.34 4.32 5.68 5.64 5 7 C4.34 6.67 3.68 6.34 3 6 C3 5.34 3 4.68 3 4 C1.68 4 0.36 4 -1 4 C-0.67 2.68 -0.34 1.36 0 0 Z " fill="#CFB25C" transform="translate(380,76)"/>
<path d="M0 0 C0.66 1.32 1.32 2.64 2 4 C-0.31 5.32 -2.62 6.64 -5 8 C-5.33 6.68 -5.66 5.36 -6 4 C-4.02 2.68 -2.04 1.36 0 0 Z " fill="#BD9F54" transform="translate(132,150)"/>
<path d="M0 0 C1.98 0.99 3.96 1.98 6 3 C5.67 4.65 5.34 6.3 5 8 C3.68 7.67 2.36 7.34 1 7 C0.67 4.69 0.34 2.38 0 0 Z " fill="#CAA33C" transform="translate(345,55)"/>
<path d="M0 0 C2.4375 0.375 2.4375 0.375 5 1 C5.33 1.66 5.66 2.32 6 3 C-0.6 3 -7.2 3 -14 3 C-14 2.67 -14 2.34 -14 2 C-9.38 2 -4.76 2 0 2 C0 1.34 0 0.68 0 0 Z " fill="#B7984E" transform="translate(299,460)"/>
<path d="M0 0 C0.33 0 0.66 0 1 0 C1 1.98 1 3.96 1 6 C1.99 6 2.98 6 4 6 C4 6.66 4 7.32 4 8 C1.24921116 8.91692961 -0.35948913 9.10886083 -3.1875 9.0625 C-5.0746875 9.0315625 -5.0746875 9.0315625 -7 9 C-6.34 8.34 -5.68 7.68 -5 7 C-4.01 7 -3.02 7 -2 7 C-1.34 4.69 -0.68 2.38 0 0 Z " fill="#E7C057" transform="translate(199,454)"/>
<path d="M0 0 C3.96 1.98 3.96 1.98 8 4 C7.01 4.99 6.02 5.98 5 7 C3.02 6.01 1.04 5.02 -1 4 C-0.67 2.68 -0.34 1.36 0 0 Z " fill="#B59B52" transform="translate(218,233)"/>
<path d="M0 0 C1.32 0 2.64 0 4 0 C4 0.66 4 1.32 4 2 C4.99 2.33 5.98 2.66 7 3 C7 3.66 7 4.32 7 5 C6.01 5.33 5.02 5.66 4 6 C3.01 6.495 3.01 6.495 2 7 C1.34 4.69 0.68 2.38 0 0 Z " fill="#C6A64F" transform="translate(244,250)"/>
<path d="M0 0 C0.66 0 1.32 0 2 0 C2 3.63 2 7.26 2 11 C1.67 10.34 1.34 9.68 1 9 C0.34 8.67 -0.32 8.34 -1 8 C-1.75 6.1875 -1.75 6.1875 -2 4 C-1.0625 1.75 -1.0625 1.75 0 0 Z " fill="#8D6737" transform="translate(304,450)"/>
<path d="M0 0 C2.31 0.33 4.62 0.66 7 1 C4.61426621 2.89213369 2.92824652 4.02391783 0 5 C-0.66 4.67 -1.32 4.34 -2 4 C-1.34 2.68 -0.68 1.36 0 0 Z " fill="#AF9856" transform="translate(395,353)"/>
<path d="M0 0 C0.33 0.66 0.66 1.32 1 2 C1.99 2.33 2.98 2.66 4 3 C3.67 5.31 3.34 7.62 3 10 C2.34 10 1.68 10 1 10 C0.67 6.7 0.34 3.4 0 0 Z " fill="#E8CC65" transform="translate(392,298)"/>
<path d="M0 0 C0 0.66 0 1.32 0 2 C2.31 2 4.62 2 7 2 C7 2.33 7 2.66 7 3 C2.38 3 -2.24 3 -7 3 C-7 2.34 -7 1.68 -7 1 C-4 0 -4 0 0 0 Z " fill="#D7AB47" transform="translate(357,460)"/>
<path d="M0 0 C2.125 0.9375 2.125 0.9375 4 2 C0.48812804 4.40814077 -1.72656908 5.36629408 -6 5 C-2.25 1.125 -2.25 1.125 0 0 Z " fill="#C5AD63" transform="translate(423,338)"/>
<path d="M0 0 C1.98 0.99 3.96 1.98 6 3 C5.01 4.485 5.01 4.485 4 6 C2.68 6 1.36 6 0 6 C-1.125 2.25 -1.125 2.25 0 0 Z " fill="#BCA350" transform="translate(336,50)"/>
<path d="M0 0 C2.625 0.9375 2.625 0.9375 5 2 C4.67 2.99 4.34 3.98 4 5 C2.68 5 1.36 5 0 5 C0 4.34 0 3.68 0 3 C-0.66 3 -1.32 3 -2 3 C-2 2.34 -2 1.68 -2 1 C-1.34 0.67 -0.68 0.34 0 0 Z " fill="#C2A251" transform="translate(255,5)"/>
<path d="M0 0 C2.31 0.33 4.62 0.66 7 1 C6.01 1.495 6.01 1.495 5 2 C4.27840576 3.64363134 3.60648579 5.31050386 3 7 C0 3.375 0 3.375 0 0 Z " fill="#E0B55B" transform="translate(176,443)"/>
<path d="M0 0 C1.4540625 0.0309375 1.4540625 0.0309375 2.9375 0.0625 C3.5975 1.3825 4.2575 2.7025 4.9375 4.0625 C-1.8125 3.3125 -1.8125 3.3125 -4.0625 1.0625 C-3.0625 0.0625 -3.0625 0.0625 0 0 Z " fill="#C1A453" transform="translate(227.0625,256.9375)"/>
<path d="M0 0 C1.98 0.66 3.96 1.32 6 2 C5.67 2.99 5.34 3.98 5 5 C3.68 5 2.36 5 1 5 C1 4.34 1 3.68 1 3 C0.34 2.67 -0.32 2.34 -1 2 C-0.67 1.34 -0.34 0.68 0 0 Z " fill="#BDA253" transform="translate(304,33)"/>
<path d="M0 0 C-0.66 0.66 -1.32 1.32 -2 2 C-1.34 2.66 -0.68 3.32 0 4 C-2.64 4 -5.28 4 -8 4 C-8 3.34 -8 2.68 -8 2 C-4.77208445 -0.1519437 -3.71599191 -0.20086443 0 0 Z " fill="#B89A3A" transform="translate(270,443)"/>
<path d="M0 0 C0.66 0.99 1.32 1.98 2 3 C1.67 3.99 1.34 4.98 1 6 C-1.0625 6.6875 -1.0625 6.6875 -3 7 C-2.25 2.25 -2.25 2.25 0 0 Z " fill="#AC9658" transform="translate(348,361)"/>
<path d="M0 0 C0.556875 0.391875 1.11375 0.78375 1.6875 1.1875 C-2.04215139 3.22185531 -3.98155042 4.1875 -8.3125 4.1875 C-6.5910452 0.7445904 -3.76755157 -1.32373434 0 0 Z " fill="#CEB05E" transform="translate(415.3125,344.8125)"/>
<path d="M0 0 C2 2 2 2 2.125 4.625 C2.08375 5.40875 2.0425 6.1925 2 7 C1.01 6.67 0.02 6.34 -1 6 C-1.33 6.66 -1.66 7.32 -2 8 C-1.125 1.125 -1.125 1.125 0 0 Z " fill="#D7914A" transform="translate(304,284)"/>
<path d="M0 0 C1.2065625 0.0309375 1.2065625 0.0309375 2.4375 0.0625 C2.4375 0.7225 2.4375 1.3825 2.4375 2.0625 C3.0975 2.0625 3.7575 2.0625 4.4375 2.0625 C4.4375 2.7225 4.4375 3.3825 4.4375 4.0625 C3.4475 4.3925 2.4575 4.7225 1.4375 5.0625 C-1.25 3.125 -1.25 3.125 -3.5625 1.0625 C-2.5625 0.0625 -2.5625 0.0625 0 0 Z " fill="#BCA45B" transform="translate(296.5625,44.9375)"/>
<path d="M0 0 C2.0625 0.4375 2.0625 0.4375 4 1 C3.34 1 2.68 1 2 1 C1.67 2.32 1.34 3.64 1 5 C-0.32 5 -1.64 5 -3 5 C-1.125 1.125 -1.125 1.125 0 0 Z " fill="#C2A85C" transform="translate(402,349)"/>
<path d="M0 0 C0.66 0.66 1.32 1.32 2 2 C2.99 2.33 3.98 2.66 5 3 C0.56923077 6.07692308 0.56923077 6.07692308 -2.3125 5.6875 C-2.869375 5.460625 -3.42625 5.23375 -4 5 C-3.01 4.67 -2.02 4.34 -1 4 C-0.26676204 1.98491642 -0.26676204 1.98491642 0 0 Z " fill="#CCA65C" transform="translate(395,335)"/>
<path d="M0 0 C0.625 1.875 0.625 1.875 1 4 C0.34 4.66 -0.32 5.32 -1 6 C-1.99 6 -2.98 6 -4 6 C-4.33 5.01 -4.66 4.02 -5 3 C-3.35 2.01 -1.7 1.02 0 0 Z " fill="#B5944C" transform="translate(417,322)"/>
<path d="M0 0 C0.99 0.33 1.98 0.66 3 1 C2.67 2.32 2.34 3.64 2 5 C0.68 5 -0.64 5 -2 5 C-1.125 1.125 -1.125 1.125 0 0 Z " fill="#AF9853" transform="translate(177,209)"/>
<path d="M0 0 C0.598125 0.20625 1.19625 0.4125 1.8125 0.625 C1.1525 1.945 0.4925 3.265 -0.1875 4.625 C-1.1775 4.625 -2.1675 4.625 -3.1875 4.625 C-3.1875 3.965 -3.1875 3.305 -3.1875 2.625 C-3.8475 2.295 -4.5075 1.965 -5.1875 1.625 C-2.1875 -0.375 -2.1875 -0.375 0 0 Z " fill="#AF9241" transform="translate(76.1875,183.375)"/>
<path d="M0 0 C0.66 0.33 1.32 0.66 2 1 C2 2.32 2 3.64 2 5 C0.35 4.67 -1.3 4.34 -3 4 C-2.67 3.01 -2.34 2.02 -2 1 C-1.34 0.67 -0.68 0.34 0 0 Z " fill="#D5AB45" transform="translate(452,302)"/>
<path d="M0 0 C0.66 0 1.32 0 2 0 C3.125 3.75 3.125 3.75 2 6 C0.35 6 -1.3 6 -3 6 C-3 5.34 -3 4.68 -3 4 C-2.01 4 -1.02 4 0 4 C0 2.68 0 1.36 0 0 Z " fill="#DFB851" transform="translate(287,289)"/>
<path d="M0 0 C2.475 0.99 2.475 0.99 5 2 C4.67 2.99 4.34 3.98 4 5 C2.68 4.67 1.36 4.34 0 4 C0 2.68 0 1.36 0 0 Z " fill="#C4A752" transform="translate(234,243)"/>
<path d="M0 0 C1.98 0.495 1.98 0.495 4 1 C4 2.32 4 3.64 4 5 C2.35 4.67 0.7 4.34 -1 4 C-0.67 2.68 -0.34 1.36 0 0 Z " fill="#C19D61" transform="translate(183,213)"/>
<path d="M0 0 C2.4375 0.375 2.4375 0.375 5 1 C5.33 1.66 5.66 2.32 6 3 C5.34 3.66 4.68 4.32 4 5 C2.68 4.34 1.36 3.68 0 3 C0 2.01 0 1.02 0 0 Z " fill="#C9A54B" transform="translate(343,73)"/>
<path d="M0 0 C1.98 0 3.96 0 6 0 C5.67 1.98 5.34 3.96 5 6 C4.01 5.67 3.02 5.34 2 5 C2.33 4.01 2.66 3.02 3 2 C2.01 1.34 1.02 0.68 0 0 Z " fill="#BDA936" transform="translate(178,443)"/>
<path d="M0 0 C0.66 0 1.32 0 2 0 C2.33 1.65 2.66 3.3 3 5 C1.68 5.33 0.36 5.66 -1 6 C-1.042721 4.33388095 -1.04063832 2.66617115 -1 1 C-0.67 0.67 -0.34 0.34 0 0 Z " fill="#D4BA5B" transform="translate(171,439)"/>
<path d="M0 0 C2.0625 0.4375 2.0625 0.4375 4 1 C0.3558226 3.4294516 -1.71241272 3.16179575 -6 3 C-6 2.34 -6 1.68 -6 1 C-4.7934375 1.0309375 -4.7934375 1.0309375 -3.5625 1.0625 C-1.06645115 1.29633621 -1.06645115 1.29633621 0 0 Z " fill="#C3A357" transform="translate(428,336)"/>
<path d="M0 0 C0 0.66 0 1.32 0 2 C-2.31 2.33 -4.62 2.66 -7 3 C-7 2.34 -7 1.68 -7 1 C-3.375 -1.125 -3.375 -1.125 0 0 Z " fill="#CCB157" transform="translate(441,330)"/>
<path d="M0 0 C-0.33 1.32 -0.66 2.64 -1 4 C-2.65 4 -4.3 4 -6 4 C-5.67 3.01 -5.34 2.02 -5 1 C-3 0 -3 0 0 0 Z " fill="#CDAA57" transform="translate(433,315)"/>
<path d="M0 0 C2.31 0 4.62 0 7 0 C6.67 1.32 6.34 2.64 6 4 C3.83125748 3.49396008 2.00032373 3.00016187 0 2 C0 1.34 0 0.68 0 0 Z " fill="#DBB64A" transform="translate(274,287)"/>
<path d="M0 0 C0.99 0.66 1.98 1.32 3 2 C-2.75 5 -2.75 5 -5 5 C-4.1875 3.0625 -4.1875 3.0625 -3 1 C-2.01 0.67 -1.02 0.34 0 0 Z " fill="#C5AD69" transform="translate(133,169)"/>
<path d="M0 0 C1.98 0.99 3.96 1.98 6 3 C5.67 3.66 5.34 4.32 5 5 C4.01 5.33 3.02 5.66 2 6 C1.34 5.67 0.68 5.34 0 5 C0 3.35 0 1.7 0 0 Z " fill="#B59D42" transform="translate(320,41)"/>
<path d="M0 0 C1.98 0 3.96 0 6 0 C6 0.99 6 1.98 6 3 C4.35 3 2.7 3 1 3 C0.67 2.01 0.34 1.02 0 0 Z " fill="#C1AA4E" transform="translate(246,2)"/>
<path d="M0 0 C0.33 0.99 0.66 1.98 1 3 C1.66 3.33 2.32 3.66 3 4 C1.02 4.33 -0.96 4.66 -3 5 C-3 3.68 -3 2.36 -3 1 C-2.01 0.67 -1.02 0.34 0 0 Z " fill="#D5BA5F" transform="translate(458,300)"/>
<path d="M0 0 C1.42944945 2.35438733 2.08661261 3.48032433 1.625 6.25 C1.41875 6.8275 1.2125 7.405 1 8 C0.34 7.67 -0.32 7.34 -1 7 C-1.04254356 5.00045254 -1.04080783 2.99958364 -1 1 C-0.67 0.67 -0.34 0.34 0 0 Z " fill="#C8AC60" transform="translate(394,293)"/>
<path d="M0 0 C0.33 0 0.66 0 1 0 C1 2.64 1 5.28 1 8 C0.34 8 -0.32 8 -1 8 C-1 7.34 -1 6.68 -1 6 C-1.66 5.67 -2.32 5.34 -3 5 C-2.34 5 -1.68 5 -1 5 C-0.67 3.35 -0.34 1.7 0 0 Z " fill="#A9944C" transform="translate(249,244)"/>
<path d="M0 0 C0.99 0.33 1.98 0.66 3 1 C2.67 1.99 2.34 2.98 2 4 C0.35 3.67 -1.3 3.34 -3 3 C-2.01 2.01 -1.02 1.02 0 0 Z " fill="#BB9C4C" transform="translate(88,193)"/>
<path d="M0 0 C0.33 1.32 0.66 2.64 1 4 C-0.65 4.33 -2.3 4.66 -4 5 C-4.33 4.34 -4.66 3.68 -5 3 C-3.35 2.01 -1.7 1.02 0 0 Z " fill="#BDA455" transform="translate(98,188)"/>
<path d="M0 0 C0.99 0 1.98 0 3 0 C2.67 1.32 2.34 2.64 2 4 C0.68 4.33 -0.64 4.66 -2 5 C-2 4.01 -2 3.02 -2 2 C-1.34 2 -0.68 2 0 2 C0 1.34 0 0.68 0 0 Z " fill="#BBA157" transform="translate(151,157)"/>
<path d="M0 0 C1.65 0.33 3.3 0.66 5 1 C4.67 2.32 4.34 3.64 4 5 C1.525 4.01 1.525 4.01 -1 3 C-0.67 2.01 -0.34 1.02 0 0 Z " fill="#C2A659" transform="translate(324,45)"/>
<path d="M0 0 C3.96 0 7.92 0 12 0 C12 0.66 12 1.32 12 2 C8.04 1.67 4.08 1.34 0 1 C0 0.67 0 0.34 0 0 Z " fill="#A37616" transform="translate(240,540)"/>
</svg>
